/* XPM */
static char *_f0a25371da34f00f386c8f21633192adoIZUPVPcIVbMoy1[] = {
/* columns rows colors chars-per-pixel */
"64 64 256 2 ",
"   c #12150D",
".  c #2C1A12",
"X  c #0F2317",
"o  c #14271B",
"O  c #332A19",
"+  c #182E21",
"@  c #193725",
"#  c #273A2A",
"$  c #343527",
"%  c #45291E",
"&  c #4D332C",
"*  c #583626",
"=  c #653D2A",
"-  c #20691F",
";  c #1A4C2D",
":  c #1C4733",
">  c #29422E",
",  c #28572C",
"<  c #284834",
"1  c #354834",
"2  c #26543C",
"3  c #385639",
"4  c #2B6A33",
"5  c #347035",
"6  c #576C09",
"7  c #5B6913",
"8  c #4E4C38",
"9  c #67402B",
"0  c #6D422C",
"q  c #73452E",
"w  c #77482E",
"e  c #6A4537",
"r  c #764934",
"t  c #7C4B33",
"y  c #72543C",
"u  c #497134",
"i  c #265B43",
"p  c #385A43",
"a  c #1C7040",
"s  c #336E49",
"d  c #5A4A45",
"f  c #495942",
"g  c #555C47",
"h  c #6C544E",
"j  c #7A5645",
"k  c #496749",
"l  c #56674B",
"z  c #50744F",
"x  c #597554",
"c  c #686C52",
"v  c #667958",
"b  c #517E61",
"n  c #767569",
"m  c #824E35",
"M  c #864F38",
"N  c #895239",
"B  c #92583E",
"V  c #885A48",
"C  c #955C43",
"Z  c #8F6C4F",
"A  c #9D7863",
"S  c #328B17",
"D  c #158C35",
"F  c #3B873B",
"G  c #3C983C",
"H  c #11B635",
"J  c #32AF32",
"K  c #738C0A",
"L  c #619D1C",
"P  c #4C8F3A",
"I  c #4DB332",
"U  c #6DB439",
"Y  c #03C614",
"T  c #01D719",
"R  c #03DB25",
"E  c #11CF33",
"W  c #2ACB2B",
"Q  c #07E234",
"!  c #6FD316",
"~  c #4DC333",
"^  c #59C539",
"/  c #6CCB2E",
"(  c #67CC37",
")  c #2C8B4C",
"_  c #3A8C43",
"`  c #398947",
"'  c #31914E",
"]  c #3A9748",
"[  c #3B944B",
"{  c #2B9552",
"}  c #21935C",
"|  c #379952",
" . c #16B74B",
".. c #39A745",
"X. c #2DB549",
"o. c #3AA654",
"O. c #3AB957",
"+. c #3CAF68",
"@. c #508C4B",
"#. c #459647",
"$. c #568756",
"%. c #469855",
"&. c #54955A",
"*. c #64845B",
"=. c #6B9450",
"-. c #48A848",
";. c #48B847",
":. c #56B14D",
">. c #44A858",
",. c #47B857",
"<. c #6AAE4E",
"1. c #538F68",
"2. c #698864",
"3. c #748F6E",
"4. c #689768",
"5. c #769973",
"6. c #42AB63",
"7. c #45AD6A",
"8. c #46B669",
"9. c #58B16F",
"0. c #65A776",
"q. c #6EAF71",
"w. c #14CB4D",
"e. c #38C748",
"r. c #38C957",
"t. c #2DD051",
"y. c #14E44F",
"u. c #2EE157",
"i. c #11D771",
"p. c #30D16D",
"a. c #0EE372",
"s. c #32E672",
"d. c #47C649",
"f. c #57C747",
"g. c #47C758",
"h. c #56C858",
"j. c #4FD552",
"k. c #6CD054",
"l. c #48C768",
"z. c #56C96A",
"x. c #59D269",
"c. c #4AC979",
"v. c #59C976",
"b. c #49D575",
"n. c #58D777",
"m. c #6CCF6E",
"M. c #6AD568",
"N. c #65D676",
"B. c #46E276",
"V. c #72E173",
"C. c #95AE0A",
"Z. c #ACB707",
"A. c #93AA2B",
"S. c #AECB22",
"D. c #C8CD05",
"F. c #E6F40D",
"G. c #D8EA27",
"H. c #8D8958",
"J. c #8E9070",
"K. c #A88A70",
"L. c #91AB74",
"P. c #A6AE6C",
"I. c #CB966D",
"U. c #A1D669",
"Y. c #CFD34B",
"T. c #DAE749",
"R. c #D9E65E",
"E. c #61B28B",
"W. c #6FB589",
"Q. c #78B688",
"!. c #0FD68B",
"~. c #2ED78A",
"^. c #0FE396",
"/. c #36E391",
"(. c #17DDA3",
"). c #34DFA6",
"_. c #16EAAC",
"`. c #2EE5AB",
"'. c #4FCE8C",
"]. c #47D888",
"[. c #56D787",
"{. c #57D897",
"}. c #66D887",
"|. c #72CC90",
" X c #66DA98",
".X c #4AE589",
"XX c #48E497",
"oX c #56E490",
"OX c #6DE391",
"+X c #7BE599",
"@X c #52DAA5",
"#X c #66DCA8",
"$X c #79D9A4",
"%X c #47E1A4",
"&X c #5AE5A7",
"*X c #6AE6AB",
"=X c #78E5A9",
"-X c #71ECB2",
";X c #8E9886",
":X c #96A98A",
">X c #8EB28C",
",X c #AEB092",
"<X c #B2B3A4",
"1X c #CDB292",
"2X c #EC9BBC",
"3X c #D0BAB2",
"4X c #E3ABBC",
"5X c #89CB96",
"6X c #ADCB94",
"7X c #86E896",
"8X c #ACE19B",
"9X c #8FD2A6",
"0X c #8AD8A7",
"qX c #B7CCAB",
"wX c #89E7A9",
"eX c #93E8B9",
"rX c #89F1B8",
"tX c #D6E399",
"yX c #C5C8A7",
"uX c #CDD1B7",
"iX c #D2D5BA",
"pX c #D6D9BA",
"aX c #D5DABC",
"sX c #CDE5B4",
"dX c #EBA5C0",
"fX c #F3A8C5",
"gX c #F6B5CC",
"hX c #F4B9CE",
"jX c #B9D5CC",
"kX c #90F6C3",
"lX c #CDCEC4",
"zX c #D6DBC4",
"xX c #D9DDC2",
"cX c #EDD4CF",
"vX c #F7C4D5",
"bX c #CEE3C9",
"nX c #DCE2C3",
"mX c #DAE6C9",
"MX c #E1E6C5",
"NX c #E4E8C9",
"BX c #E4ECCB",
"VX c #E7EAD6",
"CX c #E6F1D2",
"ZX c #EBF3D4",
"AX c #EDF1D6",
"SX c #EEF6D9",
"DX c #EFF9DD",
"FX c #EAE0E8",
"GX c #F1EAE8",
"HX c #EEF8E1",
"JX c #F2FCE4",
"KX c #F5F6EB",
"LX c #F6FEEC",
"PX c #F7FFF3",
"IX c #F9FEF6",
"UX c #FDFEF9",
/* pixels */
"rX=X-X-X*X*X*X*X*X=X=X*X*X*X=XwX7X7X7X}.'.]././.XXoX}.OXOXOXN.[..X.X[.v.v.V.V.}.}.[.[.}.}.|.L.K.L.>X X X=X=X+X+XoX{.]./.XXXXXX&X",
"rXrXrX*X-X=X=X*X*X=X=X*X*X&X X+X7X7XOX[.'.]././..XN.V.m.z.z.x..X.X|.L.K.H.L.U.7X}.n.}.}.L.A Z C B Z J.|. XoXs.s.y.u.p././.XX&X X",
"rXrX=X*X=X=X=X#X$X=XwX+X X X X X XOX[.c.{.oX/.p.b.M.V.M.h.,.l.n.L.A C B B B J.5Xm.v.N.L.A N M m m m N H.|.oXa.Q R R Q y.~.'.{.OX",
"=X=X=X*X*X*X*X#X X=X+X+X X}.[.'.~.~.p.p..XXX].l.z.M.M.k.h.O.r.q.A C N N N M t J.q.z.m.H.B m m m t t r r J.'.a.Q T T T R y.].{. X",
"*X=X=X*X#X#X@X{.{.#X&X&X{.[.v.b.s.i.i.i.n.n.N.M.h.h.h.f.,.p.~.J.C N N N N m 0 h J.z.9.Z m t t t r r q = x p.y.Q T T T Q y.s.[.[.",
"=X=X-X-X&X%X).).].@X&X*XoX[.n.n.s.i.i.s.M.k.k.k.h.g.d.O.p.^.'.A B N M M N t = * n |.q.C m t t t r q 0 = k 7.p.y.R T R Q B.[.[.'.",
"=X#X*X*X&X).(.(.).).&X*XoXn.x.x.p.p.p.j.k.k.k.f.d.u.u.u.r.~.5.C N N N N N t * & c q.H.N m t t r w q 0 * & n |.a.Q y.u.Q B.[.'.XX",
"#X#X#X*X&X%X`.).%X).%XXXXX].l.r.g.g.h.j.k.k.k.;.X.u.a.u.d.9.H.B N N N m M w * & h L.Z N t w w w q q 0 * 8 n Q.a.y.s.[.s.B.'.].XX",
"*X*X#X X+X X{.{.}.[.~.~.~.~.~.r.d.d.j.j.u.u.j.d.t.p.!.p.,.4.Z N N N M t t 0 * & n L.Z m r q q q q q = * & A Q.i.s.[..X.X].'.].XX",
"-X-X=X+X+X+X}.}.N.N.c.l.~.^.^.!.g.f.f.d.u.y.u.e.t.s.B.p.,.H.Z N N N m m r 9 & & n J.V t r w q 0 0 0 = * d A |.b.v.[..X.X.X].].XX",
"*X-X=X+X+X+X}.v.v.N.m.M.n.^.^.^.p.f.^ d.t.u.j.f.r.j.j.u.;.H.C M M M m t q = % 8 J.J.N r w q q 0 0 = * & h J.m.m.z.v..X.X[.[..XoX",
"@X#X$X+X+XOX[.c.l.z.M.k.M.~.!.!.g.^ ^ ( f.f.( ( ^ I W e.-.H.B M M m m t q * % d J.H.t w w q q 0 = = * & h ;Xm.m.m.N.n.N.N.N.n.c.",
"{.{.|.|.|. X.X.Xb.M.k.k.k.,.X.X.^ ( ( k.( ^ / / I I I I I Z N M m t t r 0 * & h ;XZ t q q q q 0 = * & & c 5.k.M.m.N.N.N.N.N.v.c.",
"{.%X@XE.E.|.[.B.l.h.k.k.:.-.I ^ ( ( ( ~ J ~ U U I I I I :.Z M m t t t w = % & n ;XV q q q q 0 0 = * % 8 n q.k.M.M.z.l.z.v.v.z.z.",
"@X`._.).'.0.9.c.r.g.h.d.X.-.;.( / / ^ J W W I U U / ^ I =.Z M m r w w 0 * % & n W.j q = 0 0 = 0 = * % d 3.m.k.k.h.l.p.l.9.9.z.x.",
"@X`._._.'.0.1.8.p.p.r.w.w.w.-.U / ( I J w.W ~ / / / ^ I =.C t r q w q 0 * % d Q.9.y 0 = = 0 = = * * % d 3.k.k.k.,.r.p.p.z.z.x.x.",
"'.)._.`.'.1.b &.r.t.w.w.E H P P ~ ~ ~ W t.J I / / / U @.=.N t t t y j V j h h 3.4.j r = = = = = * % & c 3.<.f.h.g.r.r.O.g.x.x.x.",
"}.XX~.~.9.4.z s %.X.X.X.X.G l #.e.e.t.y.t.J J ^ / / P @.=.V V Z V V V V V V V V V j j j e = * * * % & n 3.:.e.r.r.u.r.o.,.h.x.z.",
"OX{.~.c.m.q.$.3 k #.P P z z l G w.w.w.t.W J J ^ ^ ^ <.3.K.K.K.K.A A Z V j y r 0 e e e h h h 9 * & % & n $...t.t.r.r.O...,.h.z.z.",
"}.[.c.n.V.M.<.5 < s 3 3 u #.P X.w.i.i.w.J J I ( ( m.qXVXGXKXKXKXKXGXVXcXlX3X,XK.Z j e = = e e * % O d 3.-. .i.i.i.X.....,.x.l.l.",
"}.v.8.x.V.V.k.5 @ D { { X.t.t.w.a.a.a.w.I I I ( U.yX1XVXUXUXUXUXGX3X,X,XzXUXIXPXHXVXuX,XA h e * & & d 0.r.i.a.a.i.O.;.;.h.h.,.O.",
"}.N.z.z.M.M.:.{  .H Q y.y.y.u.t.i.i.i.r.^ / / U.nX,X1XKXUXUXUXUXzXH.Z A yXPXIXPXPXLXLXLXJXnX3X;XZ h d &.r.p.i.i.p.,.f.f.f.>.| ' ",
"N.N.z.,.,.:.z a w.R T Q y.u.e.d.O.p.X.I I ( U.HXKXVXIXUXUXUXIXIXKXzXuXxXKXPXPXPXLXLXLXLXJXJXJXJXZXiX:X3.:.;.r.p...-.;.f.:.@.` ' ",
"v.x.g.,.:.&.3 @ D R R E w.t.d.( ( f.J J I k.mXIXUXUXUXUXUXIXIXIXUXUXIXIXIXPXPXLXLXLXJXJXJXJXJXJXJXJXDXmX6Xk.f.d.J J ;.d.,.%.z @.",
"l.b.x.h.h.&.3 ; a H E X.J X.e.f.( f.E H t.L.,X;XlXUXIXIXIXIXIXKXlX,X:X,X<XyXuXzXCXDXJXJXJXHXHXDXDXDXSXSXCX8Xf.e.H  .t.g.r.o.z k ",
"B.B.n.k.k.:.3 + X ; 5 P ;.p.i.t.r.e.E w.p.>XjX;X;XPXUXIXIXIXGXJ.n ;X3.$ $ c c c c n J.,XzXHXHXSXSXSXZXZXCXsXx.X.H w.u.j.r.O.s s ",
"/.s.n.M.M.9.z + X o 8 =.,.i.a.a.i.e.~ d.|.qXbXqXzXUXIXIXIXIXVXJ.:XVX<Xe c jXFXjXjXQ.$ d yXHXSXSXZXZXZXCXCXCX5XI I O.r.r.r.o.@.s ",
".X.X}.|.N.m.$.@ X o l <.c.~.a.a.i.g.U q.qXzXVXKXIXIXIXPXPXPXPXHXzXuX<XJ.;XqXjXjXqX:XJ.iXSXSXZXZXZXZXZXBXBXBXqX:.:.>.o.o.l.v.9.%.",
"}. X$X0X5XQ.x + X + l q.v.c.~.p.+.9.=.>XGXIXIXIXPXPXPXPXPXPXPXLXLXLXJXAXcXcX3X3X3X4XcXGXAXZXZXCXCXZXBXBXNXmXbXq.@.%.>.>.v.=XwX0.",
"|.0X0X9X5XQ.z o X + c q.v.v.~.8.&.&.*.qXGXPXPXPXPXPXPXPXLXLXLXJXJXJXJXGXcXvXvXvXvXvXhXvXcXVXZXZXCXBXNXMXMXmXmX5.$.>.e.e.z.wXkXW.",
"|.0X9X9X5Xq.f o X # v q.v.v.v.9.$.x 4.uXGXKXPXLXLXLXLXLXJXJXJXJXJXJXGXcXvXvXvXvXhXhXgXgXhXcXBXBXBXNXMXnXnXnXmX>X&.,.t.t.z.wXkXW.",
"E.|.0X9X5X4.1 X X # x q.v.9.k.k.@.x 4.lXGXKXLXLXLXLXLXJXJXJXJXHXJXHXcXvXvXvXhXhXhXgXfXfXfXhXcXNXnXnXnXxXnXmXmX>X&.>.,.g.v.wXkXW.",
"4.0.W.>X5.x # X X > &.z.v.9.<.k.=.x *.3XFXKXLXJXJXJXJXJXJXHXDXDXDXAXcXhXhXhXgXgXgXgXfXfXfXfXcXnXnXnXxXxXxXnXmX>X$.&.9.z.n.=XrXW.",
"W.$.z x x 3 + X X s O.j.h.q.q.m.4.l v <XFXKXJXJXaX,X,X,XaXDXDXSXSXAXcXhXgXgXgXfXfXfXfXfX2XdXzXxXxXaXaXaXzXmXmX;Xx 4.q.9.[.-X-X~.",
"5X0.s 3 3 > o X X 2 ,.g.:.=.<.q.4.l 2.<XFXKXJXJXxX,X,X,XyXSXSXSXSXZXcXhXgXgXfXfXfXfXfX2X2X4XiXaXaXaXiXaXxXnXmXJ.*.4.q.9.[.).!.!.",
"0X5XE.z < @ o X X 1 &.:.4.<.U U =.l c :XcXHXDXHXJXHXDXSXSXSXSXZXZXZXVXvXgXfXfXfXfX2X2X2X2X4XiXiXiXiXiXzXxXmXbXn l 4.q.v.].(.!.!.",
"0X0X0XW.p @ o X o 3 v v =.<.I I I l g 2.uXDXDXDXSXAXSXSXSXSXZXZXZXCXBXNXvXgXfX2X2X2X2X2X4XiXiXiXiXiXaXxXxXmXuXl f $.q.N.}.).!.!.",
"0XwXwX5X$.# o X o 3 $.c v =.U U P x x l :XCXSXSXAXZXZXZXZXZXZXBXBXNXNXNXMXcXhX4X4X4X4X3XuXiXiXiXiXpXaXxXnXmX,Xx k z 4.9.}.@X7.} ",
"wXeXeX0X4.< o X o 8 @.c $.=.@.=.@.2.4.l v qXZXSXZXZXZXZXBXBXBXNXNXMXMXMXMXnXxXiXiXiXiXiXiXiXiXaXaXzXxXnXmXbX5.>.X.J @.4.|.W.k i ",
"wXeXeX0X4.< + o @ u @.G E X...` l 4.5.v l 2.qXZXZXZXBXBXBXBXNXMXMXnXMXnXnXnXaXaXpXpXiXiXiXaXaXzXzXnXnXmXmX:Xx ,.E Y H [ 9.1.3 < ",
"wXeXeX9X2.< o o a H H Y T Q w.s l 5.5.2.l k 2.qXBXCXBXNXNXMXMXMXnXnXnXnXaXaXpXpXaXaXpXpXaXxXxXxXnXnXmXmX<Xl #.w.Y Y Y Y ` p < : ",
"eXeXeX>Xx < + ; D R T Y T R  .z 2.5.5.5.x 8 8 k ;XbXCXCXBXBXBXMXMXMXnXnXMXMXaXaXxXxXnXxXnXnXnXnXMXNXmXqXv x 4.9.E Y Y H D < : : ",
"eXeX9X5.k : @ D E R T T T R Q t.4.2.2.5.4.l 3 1 1 x :XqXuXqXuXCXBXBXBXBXNXNXMXMXMXMXMXMXMXMXMXNXBXnX:Xv x 4.4.,.E W E D ; : : : ",
"rXeX>X2.p : @ , D R T T T E X.r.9.3.v 5.5.*.f 1 1 v L.,X,X,X:XuXmXCXCXCXCXCXBXBXBXBXBXCXCXBXmXsX<X3.l g v 4.4.8.8.0.O.s < : : : ",
"kXeX>X*.p : @ # a E E E R w.v 2.2.3.J.L.5.2.f 1 1 3.yXyXyXyXJ.*.>XaXzXzXuXqX6XqXqXqX,X:X:XL.2.x l f f l v *.4.4.4.0.0.b < : : : ",
"kXeX>Xb 2 : > # a  .4 D w.w.x c v 2.L.P.5.2.k 1 > v yXyXyXyXJ.P P P @.u u - - 5 @.k 1 1 1 1 1 1 1 1 f l l x $.4.4.0.0.1.3 : : : ",
"kXeXQ.b 2 : < > ; ; # < X.w.z l c v 5.P.>X5.l 1 # f ,XyXyXyXL.L L S u u - - - - - 5 1 1 1 1 1 > $ 8 g g l l x $.0.|.|.1.p < : : ",
"kXeXQ.1.2 : < < @ + # 8 z @.l l l v 5.,X>XE.x 1 > 1 :XyXyXyX,XU ! / U.sX6X=.S S - F 3 > 1 1 > # 1 f g g g l l *.W.=X=X9.s 2 < 2 ",
"kXkX5X1.i : < < @ @ 3 l l g g l c 2.Q.6X,XW.4.k 8 l :XyXyXyX,X<./ / A.U.U.( ~ ~ J P 3 > 1 1 # > f k g f g l x 4.$XrX-X{.1.s 2 i ",
"kXkX$X1.i 2 < < @ < l l l g g l v 3.>X9X,X5.x 8 y K.,XyXyXyXqXL.tXtXU.k.6XsX8X<.I P 3 > > > # 1 k X.` k z l $.0.$XrX-X&X{.1.i i ",
"kXkX$X1.i i 2 < : p x l l l l c v 4.>XeX6Xc O O O e K.yXyXyXyXL.U.U.U.tXZXSXSXsX<.@.3 # > > < s k J W H _ z $.0.$XrX-X&X{.9.s i ",
"kXkX$X1.s i 2 < 2 k z l l l l x *.4.Q.wX8XZ . . . & Z <XyXyXyXL.! C.A.I.1XtXpXpXL.&.3 # > > } w.E W W W J z &.0. X-X-X&X&X9.%.` ",
"kXkX$X1.s i i i p z x l l l l x *.4.q.0X0XP.l 8 8 Z K.,XyXyXyX,XL 7 t C A I.1XyXq.4.p # > # 2 X.E W W W G $.&.9.|.*X*X{.[.8.,.g.",
"kXkX$X1.s i i i s x x z l l l x *.4.0.|.$X>X4.` @.@.=.L.yXyXyX,X&   O = r V K.P.=.=.3 # > > 3 z H W W J z $.&.&.E. X{.'.+.O.O.r.",
"rXrX$X1.s s s ' %.&.$.$.@.@.#.$.*.4.W.$X9.0.Q.{ 5 5 P P.yXyXyXqX8   . % * y Z 7 6 L u < 3 5 u X.E E E W [ @.&.9.'.{.c.p.i.X.o.o.",
"-X-X{.7.| %.>.g.g.>.-.-.-.#...#.$.4.|.$X%.' Q.) 4 , U Y.qXyXyXyXg   . & 9 7 6 6 6 K u 5 G I I ..G J E J ..#.%.9. X'.|  .i.o.' { ",
" X{.~.p.8.6.8.j.j.g.;.;.;.#._ F P @.0.0.5 4 3 , , , A.Y.6XyXyXyX2.$ 8 c 6 6 6 6 6 K u u I ~ I I I J ..[ ] _ ] >.v.7.) { { { ) ) ",
"8.c.~.~.+.6.8.l.g.,.,.;.-.#._ F G P #.` 4 , , , , 4 S.G.P.<X,X,XL.7 7 7 6 K K C.K K 7 3 -.;.;.G G I G G _ [ ....>.| ) ) ) ) ) { ",
"8.8.p.p.7.6.>.>.>.>.%.%.[ ` ` _ G F F 5 5 4 , , 4 F G.F.T.R.tXtXtXJ.3.H.L.A.C.C.C.C.K 8 F [ [ _ _ _ _ _ _ [ [ ] [ | | ) ) ) { o.",
"7.7.7.7.6.6.>.>.>.| | %.[ [ _ ` ` ` F F F 5 4 4 4 P G.F.F.F.G.G.T.6XL.A.S.S.Z.Z.Z.C.A.u F _ _ _ _ _ _ _ _ ' [ [ | o.o.| ) { { o.",
"7.7.7.6.6.6.6.>.>.>.| | %.[ [ [ ` ` ` _ _ #.5 4 4 U F.F.F.F.R.tXtXMXtXR.R.G.D.Z.Z.Z.C.U #.#.[ _ _ [ [ [ [ [ ' [ | o.o.o.| ' ' | ",
"7.6.6.6.6.6.6.6.>.>.| | | | [ [ [ ` _ _ #.#._ 5 4 P A.G.F.F.G.T.T.T.T.T.T.G.D.D.D.Z.Z.U #.#.#.[ [ [ [ [ | [ [ | o.o.>.,.o.' { { ",
"6.6.+.+.6.6.6.6.>.o.o.o.| | [ [ [ ` [ [ [ #.[ s 5 4 ` 6XtXtXR.R.R.T.Y.Y.Y.Y.Y.Y.Y.Y.<.-.%.%.#.[ [ | | | [ | | | o.o.o.o.o.| { { ",
"6.6.+.+.6.6.+.o.o.o.o.o.| | [ [ [ ` ` [ [ [ ` s s s s 0.mXBXnXaXaXpXiXuXyXyXuXiXnX8X>.%.| | | | | | | | | | | | | | o.o.| ' { { "
};
