/* XPM */
static char *_b1ee24a1521492cfa9d790aa31d179bv0gVstEeCBB7fCDB[] = {
/* columns rows colors chars-per-pixel */
"64 64 255 2 ",
"   c #05040B",
".  c #0A090E",
"X  c #050711",
"o  c #090A13",
"O  c #0E0E1A",
"+  c #110E1A",
"@  c #141112",
"#  c #16151A",
"$  c #11111D",
"%  c #281B0C",
"&  c #382914",
"*  c #141421",
"=  c #181623",
"-  c #171825",
";  c #191925",
":  c #1C1C29",
">  c #211E2A",
",  c #1F222B",
"<  c #21212D",
"1  c #282829",
"2  c #222532",
"3  c #2A2B35",
"4  c #322D30",
"5  c #353439",
"6  c #4E3710",
"7  c #47362C",
"8  c #71520F",
"9  c #6F4E28",
"0  c #393B43",
"q  c #4D3A41",
"w  c #3D404A",
"e  c #4F4C52",
"r  c #6E4545",
"t  c #5C5D64",
"y  c #6B6C72",
"u  c #920803",
"i  c #AE0F09",
"p  c #B9010A",
"a  c #B9330C",
"s  c #C9000E",
"d  c #C83A12",
"f  c #946F10",
"g  c #9B651A",
"h  c #AB6F11",
"j  c #8E5036",
"k  c #B55536",
"l  c #CA5317",
"z  c #FD551D",
"x  c #CD6618",
"c  c #D27213",
"v  c #FF621D",
"b  c #E7791C",
"n  c #CD5A24",
"m  c #D95C29",
"M  c #D0553A",
"N  c #F94E2D",
"B  c #E45F2A",
"V  c #FB5324",
"C  c #FC5C25",
"Z  c #F9542C",
"A  c #FA5B2C",
"S  c #F74D31",
"D  c #F84E31",
"F  c #EC5637",
"G  c #F75331",
"H  c #F95332",
"J  c #F75B31",
"K  c #F85B31",
"L  c #D76625",
"P  c #D66229",
"I  c #DC6629",
"U  c #DE6A29",
"Y  c #CF6F31",
"T  c #D56835",
"R  c #E5662B",
"E  c #E46E2C",
"W  c #FC6326",
"Q  c #FA642C",
"!  c #F96B28",
"~  c #FB6C2D",
"^  c #E67627",
"/  c #E6712C",
"(  c #EC7B2C",
")  c #FB732C",
"_  c #F77A2D",
"`  c #ED6431",
"'  c #E66833",
"]  c #EE6B31",
"[  c #F66333",
"{  c #F96331",
"}  c #F56B32",
"|  c #F86C33",
" . c #F76539",
".. c #F76B39",
"X. c #E77231",
"o. c #EC7431",
"O. c #EF7A31",
"+. c #E57938",
"@. c #F47332",
"#. c #F97235",
"$. c #F57C33",
"%. c #F97C34",
"&. c #F77239",
"*. c #F77B39",
"=. c #904D43",
"-. c #AE4F43",
";. c #B8684C",
":. c #9E7166",
">. c #8A7A75",
",. c #C15440",
"<. c #D37347",
"1. c #E87942",
"2. c #7D9A71",
"3. c #AB8F17",
"4. c #B88D35",
"5. c #CD8E0F",
"6. c #EC9115",
"7. c #D3AD11",
"8. c #F5B500",
"9. c #F7BB00",
"0. c #FABB06",
"q. c #F3AD10",
"w. c #F5BC15",
"e. c #D28F2F",
"r. c #E98726",
"t. c #F98825",
"y. c #F3832D",
"u. c #FB842D",
"i. c #FB8B2C",
"p. c #EA9427",
"a. c #FA962B",
"s. c #E58A38",
"d. c #F98332",
"f. c #F88732",
"g. c #F78139",
"h. c #F99331",
"j. c #F9A729",
"k. c #FBBC2A",
"l. c #EEB035",
"z. c #FBC400",
"x. c #FFCC00",
"c. c #F9C508",
"v. c #FFD300",
"b. c #FFDB01",
"n. c #FFD70C",
"m. c #EDC913",
"M. c #F8C717",
"N. c #FDD618",
"B. c #FFE705",
"V. c #FFF10F",
"C. c #FFE817",
"Z. c #D9D222",
"A. c #FAC829",
"S. c #FBD825",
"D. c #E3C33F",
"F. c #F7C938",
"G. c #FAD736",
"H. c #FEE729",
"J. c #FDE737",
"K. c #FFF233",
"L. c #B99051",
"P. c #AE8E78",
"I. c #A1A961",
"U. c #D18454",
"Y. c #E7904E",
"T. c #CEAB50",
"R. c #F0AF52",
"E. c #CF936F",
"W. c #A2C35B",
"Q. c #CEDA50",
"!. c #F6CB45",
"~. c #FAD849",
"^. c #F0CC52",
"/. c #F9DA58",
"(. c #FEE349",
"). c #FFF44F",
"_. c #FEE757",
"`. c #EFCC6A",
"'. c #F9D867",
"]. c #F6DB79",
"[. c #FCE766",
"{. c #F9EE70",
"}. c #FBE878",
"|. c #4C799B",
" X c #767E85",
".X c #3289B6",
"XX c #6B8D90",
"oX c #6E99AD",
"OX c #72A8AA",
"+X c #1AA4DB",
"@X c #00A9F4",
"#X c #00BAFD",
"$X c #29BDF0",
"%X c #47B0D0",
"&X c #72B5D2",
"*X c #04C4FD",
"=X c #1DC6F1",
"-X c #2BCCFB",
";X c #4FD2F5",
":X c #64D4F4",
">X c #8E8E90",
",X c #AB9D92",
"<X c #95AB9C",
"1X c #93ABA8",
"2X c #A6A8AC",
"3X c #B3ADAD",
"4X c #B3B5B9",
"5X c #D5AE97",
"6X c #E5AE90",
"7X c #CDB8AA",
"8X c #D6CD90",
"9X c #EED58B",
"0X c #F8E887",
"qX c #F8EE8B",
"wX c #F7E899",
"eX c #FEF398",
"rX c #D7CEB6",
"tX c #ECDAAC",
"yX c #FAECA7",
"uX c #FCF3AA",
"iX c #F7EDB9",
"pX c #FCF4B9",
"aX c #B7BCC2",
"sX c #B2CBD3",
"dX c #90D5E1",
"fX c #C6C7C7",
"gX c #CBCCCB",
"hX c #CDD0CD",
"jX c #CCD3D7",
"kX c #D4D4D3",
"lX c #D6D7D8",
"zX c #DBDBDB",
"xX c #D3E3D3",
"cX c #EBE6C8",
"vX c #F3EBC8",
"bX c #F9F4C9",
"nX c #E6E5DB",
"mX c #F0EDD9",
"MX c #F7F3D5",
"NX c #FDF6D5",
"BX c #F7F3DB",
"VX c #FEFADB",
"CX c #D9DCE2",
"ZX c #D8E3E7",
"AX c #E4E4E3",
"SX c #E8E9E8",
"DX c #ECECEB",
"FX c #F0EFEB",
"GX c #F7F5E3",
"HX c #FFFBE4",
"JX c #FBF8E9",
"KX c #EBEDF2",
"LX c #EEF1F4",
"PX c #F7F8F8",
"IX c #FCFDFF",
/* pixels */
"S N z V z S S S S S V V V V S S S S S C A C Z S S S S Z W A W Z S S S S S C A C Z S S S S N C Z C N S S S S N V V z D S S S S V ",
"S S V z N S S S S S N z z N S S S S S Z W C S S S S S S A ! A S S S S S S Z W W S S S S S S Z v V S S S S S S V z N S S S S S S ",
"S N z V z D S S S S V V V V S S S S Z C A C A S S S S Z W A W Z S S S S H W C C C S S S S Z C Z C Z S S S S Z V Z V D S S S S V ",
"S V D S Z Z S S S N V S S Z Z S S S Z Z S Z A S S S S A Z S Z A S S S S Z A S H C H S S S Z Z S Z Z S S S S Z D S N N S S S N V ",
"S S S S S S S S S S S S S S S S S S S S S S S S D S S S S S S D S S S S S S S S S S S S S S S S S S S S S S S S S S S S S S S S ",
"G G G G G G G G G G G G G G S G G G G G G G G G H D D H H G G F F F G G G H H H G G G G G G G G G G G G G G G G G G G G G G G G ",
"G G G G G G G G G G G G G G G G G G G G G G H H H F M -.=.r r r r r r r =.-.-.M G H H G G G G G G G G G G G G G G G G G G G G G ",
"G G G G G G G G G G G G G G G G G G G G G H G M =.q 5 3 2 2 2 2 2 2 2 2 2 3 5 q r -.F H H G G G G G G G G G G G G G G G G G G G ",
"C Z G G G Z C G A Q G G G G Q A G Q Q G H M r 4 < , < < < < < < < < < < 2 2 2 2 2 5 r ,.| K G G G Z Q H Z Q Z G G G Z C G Z C G ",
"Z G G G G G C W W A G G G G K ~ ) ~ H G k 7 , > > > < > > > > > > > < < < < < 2 2 2 2 5 =.F H G G G Q ~ ~ A G G G G G C C C Z G ",
"H G G G G G A ! W G G G G G G ~ _ ~ F =.4 : : : : : : : : : : : : : > > : > : > < < < 2 3 =.F H G G K ) ) K G G G G G A v C G G ",
"C G G G G A W A W Q G G G G ~ ) K ) j < - : : : : : : : : : : : : : : : : > : : > > : : : 3 =.G H K ) Q Q ~ J G G G A W Z C C G ",
"Z G G G G A A G H A G G G G Q K H k 5 w 0 - ; ; ; ; ; : : : : : : : : : : : : : : : ; e >X>Xt -.H K Q G G A J G G G A A G H A G ",
"G G G G G G G G G G G G G G G H M r 2XDXSX>X< = - ; ; ; ; ; ; : : : ; ; - : ; ; : * e AXIXPXlX>.M H G G G G G G G G G G G G G G ",
"G G J G G G G J G J J J G G G J =.4X4XAXIXIX X$ = = = = = = ; ; ; ; ; ; - ; ; ; - < aXIXIXfX>XlX:.F H G G J G J G G G G J J G J ",
"J J J J J J J J J J J J J J K M >XlXe lXIXIXlX3 $ * * * * * = = = = * = = = ; ; * e DXIXIXzXe lX3XM K J J J J J J J J J J J J J ",
"J J J J K J J J J J J J J J J ;.gX4Xe LXIXIXPXe + * * * * * * * = = * = = = = = $ t PXIXIXLXe 2XAX;.J J J J J J J J J J J J J J ",
"J ~ { J ~ Q J J J { ) { J ) ` :.SX Xe fXfXCXIXt O * * * * * * * * * * * * * = = $ t PX4Xy y 5 e 4XP.F K J J ) { J ~ ~ J J J K ! ",
"J Q ) ) ) Q J J K K %.%.%.%.' >.t , # , < >XPXt O * * * * * * * * * * * * * * = $ t PX2X0 1 - $ 1 >.' K J K ~ u.) _ { J J J J ! ",
"J J ) t.~ J J J K K { i.h.{ T y 1 O 4 y 2XzXLXe O $ * * * $ $ $ * * $ * * * * * $ 0 zXPXAXkXy 3 >X,X<.K J J J _ i.~ J J [ J J J ",
"[ ~ ) ) _ | [ [ [ [ d.d._ u.T 2XaX5 y LXPXPXkX2 O $ $ $ $ $ $ $ $ $ $ $ $ * $ $ $ - 2XPXPXPX<X5 ZXfX<.{ [ [ ) u.) u.| [ [ [ [ ! ",
"[ ~ { [ #.| [ [ [ | _ [ [ %.Y 4XjX5 XXKXKXLX>X+ O $ $ $ + $ $ $ $ $ $ $ $ $ O $ $ O t KXKXLX2X4 jXfX;.{ [ [ _ | [ #.#.[ [ [ { ) ",
"[ [ [ [ [ [ [ [ [ [ [ [ [ [ k 2XhX3 XXSXKXlXw o + $ $ $ * - ; : : : : : ; = $ $ + + : 2XKXKX4X4 fX4X-.{ [ [ [ [ [ [ [ [ [ [ [ [ ",
" . . . . . .[ [ [ [ [ [ [ [ k >XhXe >XAXCXy O O + + $ - ; ; : > > > > > : : : * $ O O 3 2XAXjX>XjX Xk [ [ [ [ [  . . . . . . . .",
" . . . . . .[ [ [ [ } [ ` [ M e 4X4XfXaXt $ o @ O + * * = ; : : > > > : : ; - * # % $ O , y 2XaX>X5 k [ [ [ [ [ [  . . . . . . .",
"| ..........} [ [ } } ` ` [ T 4 5 y t 2 o o % f f & # $ * * - : : > : ; - - 1 6 f 7.8 + O o = < $ 7 ' [ } } } [ [ ..| ..........",
"u.| ......%.i.} %.f.} ` ` ` y.9         . X 8 8.9.8.5.f 8 6 & < : > 1 7 8 3.7.c.v.z.3.@ o . . . o j h.] @.h.| } } ..%.i.| %.u...",
") ........| i.a.h.@.` ` ` ` ] Y %           & 6.8.0.9.z.c.c.7.7.3.3.7.m.n.n.n.c.c.q.6 X o . X   & Y $.h.h.%.} } } ....d.i.i.#...",
"| ........} u.j.h.} ` ` ` ` R r.g @           8 j.q.c c 6.q.c.n.C.C.N.w.6.c h 5.k.h @ . o . . & h ' o.a.a.@.} } } } | %.a.i.....",
"i.#.....| _ a.@.i.f.} ` ` ` ( r.U g 6 % % & 6 f l.k.c u u i a l l l a i u u g k.^.T.g f 8 8 f e.o.' h._ y.h.} } | | %.a.*.f.i...",
"%.#.....| %.@.} } @.] ` ` R E R m / 5.h 3.e.T.8XtX`.k.x u i p p p p p p u a j./.cXcXtX`.D.7.p.E B ' / ` ] @.} | | | ) *...&.%.| ",
"&.&.&.#.#.| | } ] ` ] ' ' R B m m m P 4.I.8XrXhXkXgX`.A.c i p s s s s p d j.^.rXlXkXkXfX1XI.Y.m R R ' ` ] ] } ~ | #.#.#.#.&.&.&.",
"&.&.&.#.#.#.| } ] ] ] ' ' R R m m m <.T.XXoX&XjXzXlXkX9XF.p.d s s p i L k.'.cXzXnXnXhX<XW.Q.wXY.I E R.Y.} <.P.>XOXOXOXOXP.1.&.&.",
"&.%.&.#.%.%.@.} ] ] @.' R / R m m Y.].qXS.Z.Q.}.qXeXyXyX'.A.k.b a l p.A.G.{.}.[._.(.J.J.H.C.).{.6Xk.{.cX<X%X*X*X-X;X:X:X;XoX1.%.",
"&.h.h.%.a.d.@.} ] @.a.( ( p.I 1.6XuXH.K.B.H.}.[._.(.(.(.~.G.A.A.k.A.A.N.N.(.[.}.eXuXpXVXbXK.V.).pXH.eXJX;X*X$XdXZXAXCXzXjX&XP.i.",
"&.*.a.j.f.#.@.@.] ] o.p.p./ s.tXJXuXB.B.B.eXHXJXHXHXHXHXHXpXJ.N.S.S.n.b.H.uXJXPXPXPXJXJXJXeXV.C._.C.0XNXdX$XsXnXzXlXlXkXlXdX>X*.",
"*.g.a.j.h.#.@.o.o.] y.R.`.l.H.pXHX_.b.B.B.qXNXHXJXJXHXVXuX_.n.b.b.b.b.b.b.H.{.pXNXVXHXVXbX).V.C.B.x.~.vXxXsXkXlXlXkXhXsXaX<X<.%.",
"*.a.f.%.a.i.@.o.@.o.p.l.K.V.B.(.[.n.n.B.B.B.J._.[.[._.G.n.v.v.v.v.v.v.v.b.b.b.n.H.J.J.J.C.B.B.V.C.z.w.9X8XgXgXkXhXsX2XP.U.*.%.a.",
"*.%.*.*.*.%.@.o.o.o.o.l.C.B.B.v.z.v.b.b.b.b.v.v.v.v.v.v.v.x.x.x.x.x.v.x.v.v.v.v.b.b.b.b.B.B.B.V.C.c.5.4.L.5X7X3X,XU.1.*.*.*.*.%.",
"*.*.*.*.*.*.@.o.@.@.<.<XiXeXS.z.9.v.b.b.n.b.v.v.x.x.x.x.x.x.n.S.~.~.~.~.S.n.v.v.v.v.b.b.B.B.B.V.V.G.e.Y e.o.+.+.@.) *.*.*.*.*.*.",
"*.*.*.*.*.*.@.o.@.U.%X=XxXJXqX9.0.N._.eXeX}.S.x.x.z.z.z.c./.yXNXBXJXJXHXNXuX[.N.v.v.v.b.b.H.}.eX).K.R.X.X.o.o.@.@.@.$.*.*.*.*.*.",
"*.*.*.*.*.*.@.@.U.%X*X*XdXGXpXw.c.{.bXNXVXVXuXN.z.z.z.z./.MXJXJXJXJXJXJXJXJXHXqXn.x.v.v.N.uXHXVXbX[.!.X.X.o.o.o.o.@.@.$.*.*.*.*.",
"i.g.*.*.*.f.i.U.%X*X*X#X$XxXbXG.N.uXbXNXVXVXyXN.z.z.z.z./.BXJXJXJXJXJXJXJXJXJXuXN.x.x.v.N.uXHXVXVXuX~.X.E r.O.o.o.o.y.i.*.%.f.$.",
"a.g.*.*.*.d.T.%X#X#X#X@X@XOXtXG.n.{.uXpXuX}.S.z.z.z.9.9.c./.yXMXJXJXJXJXJXBXyXG.z.z.x.x.v.(.pXVXVXbX_.s.p.p.X.o.o.o.y.a.i.a.i.*.",
"$.*.*.*.*.E.%X#X#X@X@X.X XU.^.N.v.v.N.N.n.z.z.z.z.z.9.9.9.9.M.F./.].].]./.G.M.z.z.z.z.x.v.v.S._.qX{.J.l.p.X.o.X.o.o.O.y.j.a.*.$.",
"i.*.*.*.$.oX@X@X+X.X>.<.E s.].0XN.x.z.z.z.z.z.9.9.9.9.9.9.9.9.9.9.9.9.9.9.9.9.z.z.z.z.x.x.v.v.b.b.B.C.l.p.p.X.o.o.o._ a.a.a.y.$.",
"i.g.*.*.%.P..X|.L.s.o.E +.!.'.uX[.x.z.z.z.c.M.F.F.F.A.w.9.9.9.9.9.9.9.9.9.9.9.9.z.z.x.x.x.v.v.b.b.b.H.Y./ p.O.o.o.o.y.i.@.y.t.%.",
"g.*.*.*.$.O.+.O.O.@.X./ Y.~.G.wX0Xc.z.z.A.0XiXbXMXMXvXiX0X!.w.9.9.9.9.9.9.9.9.A./.}.qXqX0X_.N.v.b.b.(.Y.R E X.o.X.@.@.O.O.@.*.$.",
"g.g.*.*.$.$.$.O.o.o.o.E R.}.M.S.N.z.z.z.'.MXMXMXBXBXBXGXGXMX0Xw.8.9.9.9.9.c.'.iXBXBXBXBXVXNXuXS.v.b.}.Y.R E E X.o.o.@.@.O.@.$.$.",
"g.g.*.*.$.$.@.O.o.o.X.E Y.0XM.x.z.z.z.z.G.iXMXMXMXMXBXBXBXGXvX!.8.8.8.8.9.~.vXGXBXBXBXMXMXNXNX_.v.b.[.Y.I E E X.o.X.@.o.O.O.$.$.",
"g.g.*.$.$.@.O.O.o.o.X.E +.^.c.x.z.z.z.z.z.~.iXMXBXBXMXBXBXBXbX!.8.8.8.8.9./.MXBXBXBXMXMXMXNXbXJ.v.v.S.s.U E E E X.o.o.o.O.O.@.$.",
"g.d.g.$.%.y.O.O.o.X.( E E e.m.S.~.G.c.z.9.9.A.'.yXiXvXMXvXiX'.0.8.8.8.8.8.A.yXBXBXBXBXMXMXbX}.n.v.v.N.+.I U ^ / X./ ( o.O.O.$.d.",
"g.t.t.d.t.y.O.o.o./ p.^ ^ L.2.9XbXiX0X~.c.9.9.9.0.w.F.!.F.w.0.8.8.8.8.8.8.9.A.].yXiXiXiXwX/.n.v.v.v.S.s.I U r.r.( r.( o.O.O.@.t.",
"g.g.t.t.y.O.O.o.X./ ^ p.p.Y |.1XiXbXbXbX0XM.9.8.8.8.8.8.8.8.8.8.8.8.8.8.8.8.9.9.M.M.M.M.c.z.x.v.v.N.S.s.I U E r.6.( X.O.O.O.O.%.",
"g.d.t.t.t.O.o.X./ / ^ r.r.^ >.%XnXcXbXMXMXwXM.8.8.8.8.8.8.8.8.8.8.8.8.8.8.8.9.9.9.z.z.z.z.z.x.G.}.yX[.s.I U ^ r.r.r.o.o.O.O.$.y.",
"g.t.y.$.t.y.o.X./ ^ r.U U b ;.oXCXSXmXvXvXbX!.9.8.8.8.8.w.!.'.0X0X].].'.!.A.w.9.9.z.z.z.z.c.[.pXbXbX9XU U U r.( X.r.y.O.O.O.d.t.",
"g.d.$.$.@.O.o.X./ E U U I P P >.sXnXAXDXFXvX^.w.9.9.8.w.].vXBXBXBXBXBXBXMXbXwX!.c.9.z.z.z./.bXbXbX8X<.I U E / X.X.X.O.O.O.$.%.%.",
"d.%.$.O.@.O.X.X./ E U U P P m Y 3XlXzXAXSXDXSXcXtX`.!.F.wXBXBXBXGXGXGXGXBXBXBXiXA.z.z.z.x.}.bXvXrXY I U U E / X.X.o.O.O.O.$.%.%.",
"$.$.$.O.@.o.X./ E U U I P P n n <.7XkXlXzXAXSXDXLXLXFXcXcXmXmXmXmXBXBXBXMXMXMXiXF.A.F.!.^.tXnXnXE.P I U U E / X.X.o.O.O.$.%.%.d.",
"$.$.$.O.@.o.o./ E U U I P P n n n <.7XkXkXlXzXAXSXDXDXDXDXDXDXDXDXFXFXDXFXDXFXmXmXmXSXSXSXAXnX5XT P U U E E / X.O.O.O.O.$.$.$.g.",
"t.$.O.O.O.( ^ / E ^ U I P n L n n n Y 5XgXhXkXlXzXAXnXAXDXDXDXDXDXDXDXDXDXDXDXDXSXAXAXzXzXzX5XT P L ^ U E ^ / X.O.O._ y.$.%.u.g.",
"t.%.$.O.O.( b ^ b ^ U I P n L c x x n n <.3XfXgXkXlXlXlXzXAXAXSXAXSXSXAXSXAXAXAXzXzXlXlXkX5XT n P I b ^ ^ ^ / X.O.O._ t.u.t.u.g.",
"$.$.$.O.O.o.^ b b U U I P P n x c x n k j 4 e >X3XfXgXgXgXgXkXlXlXlXzXlXlXlXlXkXkXkXkXrXE.P n n P I U b b / X.X.O.O.$.u.t.t.g.g.",
"u.$.$.O.O.( b b b E U I P P L x x x k 7 : $ $ : 3 t ,X7XfXfXfXfXfXfXfXfXgXgXgXgXgX7XE.Y x n n P P I b b b ^ X.O.O.$.%.t.t.t.d.g."
};
