/* XPM */
static char *b3fd710e430c4d9a822d8510ee7ce8c4At0oykbiFXY4B0So[] = {
/* columns rows colors chars-per-pixel */
"64 64 245 2 ",
"   c #1C1D02",
".  c #1A1704",
"X  c #131909",
"o  c #241F06",
"O  c #221D17",
"+  c #1E2307",
"@  c #1B2314",
"#  c #242402",
"$  c #2B2200",
"%  c #2A2C00",
"&  c #24220B",
"*  c #292B0A",
"=  c #342B01",
"-  c #373503",
";  c #232414",
":  c #252A14",
">  c #2C2D13",
",  c #2B2B1B",
"<  c #282617",
"1  c #2D3213",
"2  c #2D321B",
"3  c #273015",
"4  c #33341C",
"5  c #34391C",
"6  c #3A3D1C",
"7  c #343416",
"8  c #313414",
"9  c #2B2A25",
"0  c #342C26",
"q  c #2D3320",
"w  c #333424",
"e  c #3C3421",
"r  c #353A21",
"t  c #3B3C24",
"y  c #34352C",
"u  c #3A3B2C",
"i  c #39372B",
"p  c #3D3C35",
"a  c #383934",
"s  c #423E00",
"d  c #413B15",
"f  c #40392D",
"g  c #3D4117",
"h  c #3E4100",
"j  c #3D432B",
"k  c #3C4526",
"l  c #3D4132",
"z  c #595702",
"x  c #434318",
"c  c #535210",
"v  c #67661A",
"b  c #736E12",
"n  c #454729",
"m  c #555428",
"M  c #464638",
"N  c #53543A",
"B  c #706C33",
"V  c #5C6138",
"C  c #32385D",
"Z  c #4B4B45",
"A  c #4D5242",
"S  c #565747",
"D  c #5A5952",
"F  c #504E41",
"G  c #625C53",
"H  c #686757",
"J  c #6C7258",
"K  c #787555",
"L  c #6D6A4A",
"P  c #4F5270",
"I  c #6E726A",
"U  c #767369",
"Y  c #777A75",
"T  c #6C6D6D",
"R  c #586875",
"E  c #847A1C",
"W  c #857C58",
"Q  c #817F6C",
"!  c #778315",
"~  c #7E857E",
"^  c #7A834E",
"/  c #888C11",
"(  c #8B882A",
")  c #919631",
"_  c #A29F2A",
"`  c #A1A735",
"'  c #BBC236",
"]  c #C8C737",
"[  c #D4D838",
"{  c #ECDE33",
"}  c #F6E82A",
"|  c #FAF72A",
" . c #FFFE3C",
".. c #FFFF30",
"X. c #F3EC30",
"o. c #E6DD17",
"O. c #868958",
"+. c #A8A945",
"@. c #B2BA4C",
"#. c #B0B85A",
"$. c #888869",
"%. c #898976",
"&. c #959777",
"*. c #8F946E",
"=. c #9CA07D",
"-. c #ACAC77",
";. c #C2BE6B",
":. c #BFC370",
">. c #C8C747",
",. c #D8D848",
"<. c #D7D958",
"1. c #CACD51",
"2. c #E1D957",
"3. c #F1DF4F",
"4. c #ECE949",
"5. c #FBF948",
"6. c #EDF357",
"7. c #FBF658",
"8. c #F0E959",
"9. c #D1D16C",
"0. c #F9F76B",
"q. c #F9F779",
"w. c #E9EB73",
"e. c #6F758E",
"r. c #7C8C8C",
"t. c #8F9588",
"y. c #979786",
"u. c #979895",
"i. c #918E94",
"p. c #A39E8A",
"a. c #9DA18C",
"s. c #A7A98B",
"d. c #B5B58E",
"f. c #B7B88A",
"g. c #A8A998",
"h. c #B3AD99",
"j. c #AEB298",
"k. c #B5B597",
"l. c #AEB28F",
"z. c #8C94AA",
"x. c #A09EA1",
"c. c #9EA6BB",
"v. c #A9ABA8",
"b. c #ADB2A5",
"n. c #B7B9AA",
"m. c #ABB8BB",
"M. c #B6B8B9",
"N. c #AFADA8",
"B. c #C1BEAD",
"V. c #BAC29D",
"C. c #BDC3A4",
"Z. c #C4C69A",
"A. c #D2D182",
"S. c #E8EB8B",
"D. c #FDFA86",
"F. c #E9EC99",
"G. c #F3EC97",
"H. c #F9F996",
"J. c #FDEF8E",
"K. c #C8C9A9",
"L. c #DAD9A9",
"P. c #C7C8B8",
"I. c #CED2B9",
"U. c #D6D8B9",
"Y. c #D2CEB8",
"T. c #E6DBB3",
"R. c #DAE2B8",
"E. c #FEFDAB",
"W. c #FBFEAA",
"Q. c #F9F9B9",
"!. c #EBEBB4",
"~. c #B5B7C3",
"^. c #BABFD2",
"/. c #B8C3CC",
"(. c #C5C9CB",
"). c #C7C9C7",
"_. c #CED1C4",
"`. c #CCD2CA",
"'. c #D4D5C4",
"]. c #D5DBC5",
"[. c #D7DBCA",
"{. c #DADDCD",
"}. c #D7D9C5",
"|. c #C5CAD5",
" X c #CDD1DA",
".X c #DCDED3",
"XX c #D8D6D6",
"oX c #D2CFD9",
"OX c #E2DCC9",
"+X c #DDE2D3",
"@X c #DEEAD6",
"#X c #DBE0CC",
"$X c #E3E4CC",
"%X c #E8E8C8",
"&X c #FFFEC3",
"*X c #F9F6CA",
"=X c #E1E5D6",
"-X c #E4EAD4",
";X c #EDEBD3",
":X c #E3E6DA",
">X c #E4EBDB",
",X c #EAEDDD",
"<X c #EAE5D6",
"1X c #F2EDD8",
"2X c #EAF2DB",
"3X c #FDFED5",
"4X c #F3F5DC",
"5X c #F4FADC",
"6X c #FEFDDC",
"7X c #F7F6D5",
"8X c #EFECCD",
"9X c #D6D9E4",
"0X c #CBD1E6",
"qX c #E0DFF1",
"wX c #DCE2E7",
"eX c #DEE6F3",
"rX c #E2E3E4",
"tX c #EBEDE1",
"yX c #EAEBEC",
"uX c #E6E7EB",
"iX c #F6EDE4",
"pX c #ECF3E3",
"aX c #EFF8E4",
"sX c #EFF6EA",
"dX c #F2F4E5",
"fX c #F4FAE5",
"gX c #FCFDE4",
"hX c #F3F5EB",
"jX c #FAF6EC",
"kX c #F5FBEB",
"lX c #FDFEEC",
"zX c #FBF7E3",
"xX c #ECEDF5",
"cX c #EBECFC",
"vX c #EEF3F3",
"bX c #EEF3FC",
"nX c #F4F5F4",
"mX c #F5F9F4",
"MX c #FDFDF4",
"NX c #F4F5FB",
"BX c #FAF6FD",
"VX c #F4FBFD",
"CX c #FFFFFE",
"ZX c #FBF5F3",
"AX c #F1EEF7",
/* pixels */
"CXCXCXCXCXCXCXCXCXCXCXCXCXCXCXCXCXlX6XQ.D.7.} X.8.E.3XdXCXCXlXMXCXCXMXMXCXmXCXlXgXzXMXCXBXCXnXCXCXCXCXCXCXCXCXCXCXCXCXCXCXCXCXCX",
"CXCXCXCXCXCXCXCXCXCXCXCXCXCXCXCXlXgX&XJ.3.{ } { 2.9.Z.MXCXBXMXMXCXmXCXhXmXCXjX6XQ.Q.&X6XMXCXCXMXCXCXCXCXCXCXCXCXCXCXCXCXCXCXCXCX",
"CXCXCXCXCXCXCXCXCXCXCXCXCXCXCXCXgX&Xw.[ o.o.} { <.v # P.nXCXCXCXBXCXmXCXCX:X*.-.<.] <.H.3XlXCXCXCXCXCXCXCXCXCXCXCXCXCXCXCXCXCXCX",
"CXCXCXCXCXCXCXCXCXCXCXCXCXCXCXMX6XF.<.[ } X.4.>.z - # N NXBXBXCXCXCXBXCXNXS # % / 6.[ ' S.&XlXCXCXCXCXCXCXCXCXCXCXCXCXCXCXCXCXCX",
"CXCXCXCXCXCXCXCXCXCXCXCXCXCXCXMX3XF.w.4.4.] E = = > r X b.CXCXBXCXCXCXCXt.< n - $ ( <.] >.H.7XCXCXCXCXCXCXCXCXCXCXCXCXCXCXCXCXCX",
"CXCXCXCXCXCXCXCXCXCXCXCXCXCXCXMX3X9.@./ z - $ o 0 p w : A CXBXCXCXCXBXuX0 w , e e $ z >.,.9.6XCXCXCXCXCXCXCXCXCXCXCXCXCXCXCXCXCX",
"CXCXCXCXCXCXCXCXCXCXCXCXCXCXCXCXP.x = $ = = f U oXvXJ   k pXBXBXCXMXCXu.u t < 0 0 0 . c +.A.6XCXCXCXCXCXCXCXCXCXCXCXCXCXCXCXCXCX",
"CXCXCXCXCXCXCXCXCXCXCXCXCXCXCXCXtXi 0 e e > H CXCXyXM : + P.CXBXCXjXMXS > , w O u.XXL o # B gXZXCXCXCXCXCXCXCXCXCXCXCXCXCXCXCXCX",
"CXCXCXCXCXCXCXCXCXCXCXCXmXCXCXCXZXM i 0 4 > t J u.Z @ :   g.MXCXZXMXI.5 1 : i O H lXgXW & < XXBXCXCXCXCXCXCXCXCXCXCXCXCXCXCXCXCX",
"CXCXCXCXCXCXCXCXCXCXCXCXCXCXmXmXCXT < , 4 > : @ @ ; q r 5 L %.y.a.g.$.8 1 3 w < o H K.$.; 9 rXBXCXCXCXCXCXCXCXCXCXCXCXCXCXCXCXCX",
"CXCXCXCXCXCXCXCXCXCXCXCXCXCXCXCXMXg.> 1 4 w y p l M n 6 n 6 7 5 , r 6 g n n l l 0 < < & < u nXBXCXCXCXCXCXCXCXCXCXCXCXCXCXCXCXCX",
"CXCXCXCXCXCXCXCXCXCXCXmXCXCXCXCXCXjXS 1 w l p M j 6 g 7 6 7 n n M u t n k j j l S i M w   U CXCXCXCXCXCXCXCXCXCXCXCXCXCXCXCXCXCX",
"CXCXCXCXCXCXCXCXCXCXCXCXCXCXCXNXCXXXF i M p y w 8 x x m n M M 0 p y w w 2 2 r 5 * t w M 9 M.kXjXCXCXCXCXCXCXCXCXCXCXCXCXCXCXCXCX",
"CXCXCXCXCXCXCXCXCXmXCXCXCXCXCXCXBXi.A S i u S S *.L.!.%XU.'.'..XP.P.P.j.g.y.&.$.$.J U G D I :XMXCXCXCXCXCXCXCXCXCXCXCXCXCXCXCXCX",
"CXCXCXCXCXCXCXCXCXmXCXCXnXCXCXhXlXgXlX-Xs.U.gXY.y.<XOXOX%X%X{.$X$X%X%XR.8X4XgXgX7X7X7X6X$XY.%.'.CXCXCXCXCXCXCXCXCXCXCXCXCXCXCXCX",
"CXCXCXCXCXCXCXCXCXMXCXCXBXCXfXl.m =.$XzXI.gXgXK.p.iXMXlXgXgXgXgXgX6X7X3X6X4X,XdXgX;X1X%X6XgX+XM.CXCXCXCXCXCXCXCXCXCXCXCXCXCXCXCX",
"CXCXCXCXCXCXCXCXCXMXMXMXCXMXQ.#.x % m s.I.lX4Xn.p.gXzXzXlXlXfXfXgXkXfXfXgXlXlXMXMXlXlXlXMXMXMX:XdXCXCXmXCXCXCXCXCXCXCXCXCXCXCXCX",
"CXMXCXCXCXCXCXCXMXMXMXCXBXgXW.w.S.v # N lXMXMXj.s.7X4XgXlXkXMXkXfXfXaXaXfXfXkXkXkXkXlXMXMXMXMXhX+XkXCXCXCXCXCXBXCXCXCXCXCXCXCXCX",
"CXCXCXCXCXCXCXCXCXMXMXMXMX*XD.q.D.;.% L gXMXfXj.s.U.U.{.}.+XkXkXkXfXaXaXfXaXaXpXpXsXdXkXMXMXMXMX{.pXCXCXCXCXCXCXCXCXCXCXCXCXCXCX",
"CXCXCXCXCXCXCXCXCXCXnXMXgXE.0.6.6.q.z O.zXMXlXg.%.Y.<XlXlXgXgX2XkXkXfXfXfXaXpXpX>XpXpXaXMXmXdXMX'.+XmXCXCXCXCXCXCXCXCXCXCXCXCXCX",
"CXCXCXCXCXCXCXCXCXCXBXMX&XJ.7.5.5.6.b O.gXlXlXy.n.kXMXjXgXgXfXgXfXfXaXaXpXpXpX,X>XpX>X,XdXdXdXMX}._.pXCXCXCXCXBXCXCXCXCXCXCXCXCX",
"CXCXCXCXCXCXCXCXMXCXCXlXE.0.5. .| 5.b -.zXMX5X&.C.MXMXkXzXgX5XgXfXfXaXpXpXpXpX,X>X>X>X=XtXhXkXMXkX[.pXCXCXCXCXCXCXCXCXCXCXCXCXCX",
"CXCXCXCXCXCXCXCXCXCXBXgXH.7. .| ..5.E f.gXlX5X*.a.P.'.+X-X5XfXgXkXfXaXpXpXpXpXpX>X>X>X=X=XpXdXpXlX'.:XMXmXCXCXCXCXCXCXCXCXCXCXCX",
"CXCXCXCXCXCXCXMXCXBXBXgXD.5. ...| 5.b T.lXlX%X*.C.P.[.:X$X4XgXfXkXfXaXpXpX,XpXpX>X>X,X>X=XtXpX+X$Xj.'.MXCXCXCXCXCXCXCXCXCXCXCXCX",
"CXCXCXCXCXCXCXMXMXCXCX3Xq.5. .| X.8.v 8XlXlXU.O.R.fXMXkXgXgXfXdXaXaXaXpXaXpXpX>X>X>X>X>X=X=X>X>X-XI.I.jXCXCXmXCXCXCXCXCXCXCXCXCX",
"CXCXCXCXCXCXMXMXCXmXCX6XD.5.5.5.7._ B lXlXlXR.O.R.7XlXdX4X4XdXdXaXaXpXpXpXpX,X>X>X>X=X+X+X=X>X,XlX2X[.dXMXCXCXCXCXCXCXCXCXCXCXCX",
"CXCXCXCXCXCXMXMXCXCXCX*XD.0.7.8.w.v K MXjXgXZ.^ f.K.-XdXdXdXkXsXpXpXpXpXpX>X>X>X>X>X=X+X+X=X>X>XgX$XP.kXMXCXCXCXCXCXCXCXCXCXCXCX",
"CXCXCXCXCXCXMXMXMXCXCXgXH.q.q.D.( % $.jXMXlXk.*.Z.K.I.[.'.{.>X>XpXpX>X>X>X>X>X>X+X+X+X+X+X+X+X{.}.P.n.MXCXCXCXCXCXCXCXCXCXCXCXCX",
"CXCXMXMXCXCXCXMXmXCXCXgXQ.G.G.( s   s.hXjXgXs.*.7X8X;X:X+X>XaXpX>X>X>X>X>X>X=X+X+X+X+X.X.X{.{.[.{.'._.MXmXCXCXCXCXCXCXCXCXCXCXCX",
"CXCXMXMXCXCXCXCXCXCXCXgX!.c - # % # a.dXpXfXl.&.%X;X1XtXtXtX>X@X>X>X@X@X+X+X+X+X+X+X{.{.{..X=X-XlX{.{.MXCXCXCXCXCXCXCXCXCXCXCXCX",
"CXCXCXCXCXCXCXCXBXCXCXdXgX&.K $.&.*.j.fX,X4Xs.$.U.;XiXtX:X>X-X@X>X>X+X+X+X+X+X{.{.{.{.[.{.+XtXfXlXI.+XMXCXCXmXCXCXCXCXCXCXCXCXCX",
"CXCXCXCXCXCXCXCXCXNXCXMXlXlXdXlXgX5XK.4X5XgXh.%.h.'.1X,X,X,X-X-X-X=X+X+X+X.X[.].].].[.[.#X-XdXlX,XP.dXZXCXCXCXCXCXCXCXCXCXCXCXCX",
"CXCXCXCXCXCXCXCXBXCXCXCXCXhXn.H H S J *.*.s.Q Q P.h.k.K.Y.Y.U.}.U.}.XXXXXX{.].U.U.].].U.-X4X;X4X_.'.ZXCXCXCXmXCXCXCXCXCXCXCXCXCX",
"CXCXCXCXCXCXCXCXCXmXCXCXyXCXrXZ , 4   # *   & t %.B.K.d.d.d.h.k.l.l.b.N.h.k.d.d.l.j.n.I.k.K.$X'.D ).CXmXCXCXCXCXCXCXCXCXCXCXCXCX",
"CXCXCXCXCXCXCXCXCXmXCXCXmXCXCX.XM , n t 1 7 4 # # N K K $.&.&.&.=.s.l.k.d.f.f.d.n.b.n.j.V.C.g.y t.mXCXmXCXMXmXCXCXCXCXCXCXCXCXCX",
"CXCXCXCXCXCXCXCXnXCXmXmXCXCXmXCX.XF , r 4 4 8 7 5 # o #   & > & * 1 7 6 g x x k y a u t 5 4 ; u.mXCXCXCXCXmXCXCXCXCXCXCXCXCXCXCX",
"CXCXCXCXCXCXCXCXCXCXCXCXCXCXCXvXCXjXU < 4 w 4 8 7 * 8 5 > 4 e ; 4 2 > : * * : < y y , w 2 w ).CXCXhXCXCXmXCXCXmXCXCXCXCXCXCXCXCX",
"CXCXCXCXCXCXCXCXCXmXCXCXmXnXCXCXCXCXZXn.F ; w 4 4 r 4 4 4 , , w : : 2 4 5 r w y 9 w < i $.jXCXBXCXmXCXCXCXCXmXCXCXCXCXCXCXCXCXCX",
"CXCXCXCXCXCXCXCXCXCXCXCXCXCXCXnXCXnXCXMXjXb.S w , ; & 2 t 2 , w w w 5 4 : ; ; , 4 M y.}.CXCXmXCXCXCXmXmXCXCXmXCXCXCXCXCXCXCXCXCX",
"CXCXCXCXCXCXCXCXCXCXCXCXCXmXCXCXCXCXCXMXMXZXCX).x.I S M 2 2 i 9 , , , q i A I t.P.gXlXMXCXCXCXCXmXCXCXCXCXCXCXnXCXCXCXCXCXCXCXCX",
"CXCXCXCXCXCXCXCXCXCXCXCXCXCXCXCXCXBXCXMXMXmXBXBXBXCXtX%.$.J Y I Y I I ~ t.`.MXMXCXCXjXMXMXMXBXCXCXCXCXCXCXCXCXCXCXCXCXCXCXCXCXCX",
"CXCXCXCXCXCXCXCXCXCXCXCXCXCXCXCXCXCXCXZXjXCXCXBXCXM.D : y.b.b.(./.XX~.z.9X(.u.CXCXMXgX6X3XgXCXBXCXCXCXCXCXCXCXCXCXCXCXCXCXCXCXCX",
"CXCXCXCXCXCXCXCXCXCXCXCXCXCXCXCXCXNXCXMXZXCXnX9XT y M q %.MXM.(.uXoXe.P z.0Xi.Y CXgX&XG.9.L.MXBXCXCXCXCXCXCXCXCXCXCXCXCXCXCXCXCX",
"CXCXCXCXCXCXCXCXCXCXCXCXCXCXCXCXNXCXCXmXMXMXg.M p u M w n.mXyXM.(.~.P C R c.9XZ G Z.;.` ' 9.gXCXCXCXCXCXCXCXCXCXCXCXCXCXCXCXCXCX",
"CXCXCXCXCXCXCXCXCXCXCXCXCXCXCXCXCXCXBXCXjXy.n 6 g n ; M yXnXxXvXM.9X0XC z.0X9Xg.# B >.] ' 9.3XCXCXCXCXCXCXCXCXCXCXCXCXCXCXCXCXCX",
"CXCXCXCXCXCXCXCXCXCXCXCXCXCXCXCXCXCXCXCXjXL = h - - t P.NXxXxXNXNXv.eXe.R /./.rX6 c 1.>.<.E.6XMXCXCXCXCXCXCXCXCXCXCXCXCXCXCXCXCX",
"CXCXCXCXCXCXCXCXCXCXCXCXCXCXCXCXCXCXCXCX,Xx z ) +.v L.ZXxXBXBXxXcXcX|.r.R ~.wXBX%.. W L.3XgXMXCXCXCXCXCXCXCXCXCXCXCXCXCXCXCXCXCX",
"CXCXCXCXCXCXCXCXCXCXCXCXCXCXCXCXCXCXCXBXMXO.9.w.1.S.3XjXNXbXNXcXcXqX|.m.~./.eXuXoXn.iXMXCXZXCXCXCXCXCXCXCXCXCXCXCXCXCXCXCXCXCXCX",
"CXCXCXCXCXCXCXCXCXCXCXCXCXCXCXCXCXCXMXMXMX*Xw.,.,.1.Q.lXvXVXbX X~.0X^.0X X|.(.XXAXBXCXMXMXMXCXCXCXCXCXCXCXCXCXCXCXCXCXCXCXCXCXCX",
"CXCXCXCXCXCXCXCXCXCXCXCXCXCXCXCXCXCXMXkXMX6XH.2.,.1.Q.lXmXVXbX(.XXuX/.|.cX|.N.(.uXNXCXCXMXMXCXCXCXCXCXCXCXCXCXCXCXCXCXCXCXCXCXCX",
"CXCXCXCXCXCXCXCXCXCXCXCXCXCXCXCXCXCXMXkXCXMX&XG.9.A.;XmXVXVXvX)._.@Xm.~.uX(.N.`.wXxXCXCXCXCXCXCXCXCXCXCXCXCXCXCXCXCXCXCXCXCXCXCX",
"CXCXCXCXCXCXCXCXCXCXCXCXCXCXCXCXCXCXMXMXCXCXgX3X!.T.hXNXbXVXnX_.P.sX X9XyXuX`.:XrXxXCXCXCXCXCXCXCXCXCXCXCXCXCXCXCXCXCXCXCXCXCXCX",
"CXCXCXCXCXCXCXCXCXCXCXCXCXCXCXCXCXCXCXCXCXBXBXCXMXiXNXbXbXVXnX_.).vX X9XuX9XM.M.rXcXBXCXCXCXCXCXCXCXCXCXCXCXCXCXCXCXCXCXCXCXCXCX",
"CXCXCXCXCXCXCXCXCXCXCXCXCXCXCXCXCXCXCXMXCXCXBXBXNXxXbXcXbXNXnX).`.uXm.m.uX Xv.~.9XxXBXCXCXCXCXBXCXCXCXCXCXCXCXCXCXCXCXCXCXCXCXCX",
"CXCXCXCXCXCXCXCXCXCXCXCXCXCXCXCXCXCXCXMXCXCXCXNXxXxXbXbXVXNXnX).).wXn.n.>X{.).9XqXcXCXCXMXCXCXCXCXCXCXCXCXCXCXCXCXCXCXCXCXCXCXCX",
"CXCXCXCXCXCXCXCXCXCXCXCXCXCXCXCXCXBXCXCXMXlXMXMXnXVXVXVXCXBXnX).(.NX>X2X-XpXwX9XcXNXCXMXMXCXCXCXCXCXCXCXCXCXCXCXCXCXCXCXCXCXCXCX",
"CXCXCXCXCXCXCXCXCXCXCXCXCXCXCXCXCXCXCXCXMXMXMXMXMXmXM.M.XXyXyX).~.9X).n.g.I i.CXCXCXCXCXCXCXCXCXCXCXCXCXCXCXCXCXCXCXCXCXCXCXCXCX",
"CXCXCXCXCXCXCXCXCXCXCXCXCXCXCXCXCXCXCXCXCXMXMXMXmXCXN.9 M p f Z D T y 9 9 9 v.CXCXCXCXCXCXCXCXCXCXCXCXCXCXCXCXCXCXCXCXCXCXCXCXCX",
"CXCXCXCXCXCXCXCXCXCXCXCXCXCXCXCXCXCXCXCXCXCXCXCXVXVX).p f t 0 Z hXg.. 4 t n .XCXCXCXCXCXCXCXCXMXCXCXCXCXCXCXCXCXCXCXCXCXCXCXCXCX",
"CXCXCXCXCXCXCXCXCXCXCXCXCXCXCXCXCXCXCXCXCXCXCXCXCXCXB.4 d x 7 b.lXC.% % # V gXCXCXCXCXCXCXCXCXCXCXCXCXCXCXCXCXCXCXCXCXCXCXCXCXCX",
"CXCXCXCXCXCXCXCXCXCXCXCXCXCXCXCXCXCXCXCXBXBXCXCXCXCXU.m s = d ;X3X!.` ) ! :.6XMXCXCXlXgXMXCXCXCXCXCXCXCXCXCXCXCXCXCXCXCXCXCXCXCX",
"CXCXCXCXCXCXCXCXCXCXCXCXCXCXCXCXCXCXMXCXBXBXCXCXMXgX3X;.+.( -.gXgXQ.#.@.@.W.6XCXCXCXMXlXMXCXCXCXCXCXCXCXCXCXCXCXCXCXCXCXCXCXCXCX",
"CXCXCXCXCXCXCXCXCXCXCXCXCXCXCXCXCXCXMXMXBXBXCXCXMX6XQ.9.2.1.!.gXZXMX8XL.L.gXCXBXBXCXCXCXCXCXCXCXCXCXCXCXCXCXCXCXCXCXCXCXCXCXCXCX",
"CXCXCXCXCXCXCXCXCXCXCXCXCXCXCXCXCXCXMXMXBXBXCXCXlX3XE.q.] >.&XzXBXBXlXgXlXlXBXBXBXBXCXCXCXCXCXCXCXCXCXCXCXCXCXCXCXCXCXCXCXCXCXCX"
};
