/* XPM */
static char *_031a7747fd041de97c8b5aeb5a6a5969G11vvaFh1qNjdgc[] = {
/* columns rows colors chars-per-pixel */
"64 64 254 2 ",
"   c #0B0F04",
".  c #150C00",
"X  c #180906",
"o  c #181605",
"O  c #121613",
"+  c #270603",
"@  c #26140A",
"#  c #2B1C19",
"$  c #331D1A",
"%  c #390B0E",
"&  c #2F2D09",
"*  c #1F2F22",
"=  c #3A2B25",
"-  c #3A3528",
";  c #491818",
":  c #5B1516",
">  c #503117",
",  c #551D20",
"<  c #492B29",
"1  c #533030",
"2  c #653228",
"3  c #57411C",
"4  c #4C4737",
"5  c #574E32",
"6  c #714837",
"7  c #5F633E",
"8  c #746F3C",
"9  c #5E3B48",
"0  c #595852",
"q  c #52524C",
"w  c #704C4A",
"e  c #7B7755",
"r  c #726D4E",
"t  c #7A7267",
"y  c #8D353A",
"u  c #833646",
"i  c #8E5257",
"p  c #827250",
"a  c #B36E52",
"s  c #B45C6D",
"d  c #957777",
"f  c #926E70",
"g  c #B67677",
"h  c #B2726E",
"j  c #E76E5F",
"k  c #EB5C60",
"l  c #C66A6B",
"z  c #C5756B",
"x  c #C36979",
"c  c #D96D7A",
"v  c #C87578",
"b  c #D8767A",
"n  c #D7706B",
"m  c #EE6D71",
"M  c #CF6B4C",
"N  c #96834D",
"B  c #A7864B",
"V  c #8B8962",
"C  c #B4837B",
"Z  c #AD997E",
"A  c #B4B078",
"S  c #CC8652",
"D  c #CF8577",
"F  c #D2A063",
"G  c #EEA86D",
"H  c #DCD072",
"J  c #EFD576",
"K  c #F5E572",
"L  c #ECE571",
"P  c #987884",
"I  c #AC739B",
"U  c #B57A9C",
"Y  c #B3728D",
"T  c #B76EA4",
"R  c #BB75A6",
"E  c #DB5C8F",
"W  c #DD5D96",
"Q  c #D45B93",
"!  c #C95E88",
"~  c #E55E9B",
"^  c #EC5E9B",
"/  c #EA5B95",
"(  c #F25E9D",
")  c #C66588",
"_  c #DB6A8A",
"`  c #C97786",
"'  c #D5778A",
"]  c #CA6993",
"[  c #DC6595",
"{  c #D36A94",
"}  c #DA6A96",
"|  c #DE6599",
" . c #DB6B9C",
".. c #D56497",
"X. c #CA7599",
"o. c #D4729B",
"O. c #D87999",
"+. c #E17788",
"@. c #E36395",
"#. c #EA6396",
"$. c #E6659D",
"%. c #EB649F",
"&. c #E36A9C",
"*. c #EC6B9E",
"=. c #E16A94",
"-. c #F1619E",
";. c #F46C9E",
":. c #E87497",
">. c #E56F85",
",. c #F55FA1",
"<. c #EE5DA2",
"1. c #C56FAA",
"2. c #DB6BA4",
"3. c #C678A7",
"4. c #D879A4",
"5. c #CC77B3",
"6. c #D379B8",
"7. c #D26FB5",
"8. c #E665A1",
"9. c #EC65A1",
"0. c #E46AA1",
"q. c #EC69A3",
"w. c #F263A2",
"e. c #F36AA4",
"r. c #F866A6",
"t. c #E675A4",
"y. c #F47BA9",
"u. c #F272A1",
"i. c #7C9985",
"p. c #7EA683",
"a. c #949291",
"s. c #A79188",
"d. c #BB8B95",
"f. c #B1918C",
"g. c #88AF9A",
"h. c #B7B58B",
"j. c #BA87AE",
"k. c #90B4A4",
"l. c #BAB9B5",
"z. c #ACAFA8",
"x. c #C58485",
"c. c #DA918D",
"v. c #DA8897",
"b. c #C9969C",
"n. c #D89597",
"m. c #D68B8F",
"M. c #E78698",
"N. c #E49798",
"B. c #E6868C",
"V. c #CEAE8F",
"C. c #D987AA",
"Z. c #CA97A7",
"A. c #D284BC",
"S. c #C992B2",
"D. c #DA99B7",
"F. c #CE87AF",
"G. c #E486A7",
"H. c #E395B5",
"J. c #EF90AC",
"K. c #D7A5A6",
"L. c #CCB7A7",
"P. c #D1AFB4",
"I. c #E6A5B8",
"U. c #EAB9B7",
"Y. c #F7B6BA",
"T. c #EDB6AC",
"R. c #EBA99D",
"E. c #A9C3A0",
"W. c #BBC495",
"Q. c #CEDF9C",
"!. c #CECC90",
"~. c #F1D980",
"^. c #E6DE98",
"/. c #F7CD83",
"(. c #DDF194",
"). c #FCE596",
"_. c #EEEA91",
"`. c #DAD8A9",
"'. c #CCC7B7",
"]. c #FFCCBE",
"[. c #EBD1AC",
"{. c #FDFAA5",
"}. c #EEE7AB",
"|. c #DEE8AC",
" X c #D79EC1",
".X c #FE9AC6",
"XX c #E18EC6",
"oX c #D8A6C7",
"OX c #CEB2C4",
"+X c #EBA7C6",
"@X c #F7A7C9",
"#X c #E8B9C8",
"$X c #F4B8CC",
"%X c #FAAAD6",
"&X c #EABBD3",
"*X c #F6BAD7",
"=X c #E8ADD5",
"-X c #CED3CB",
";X c #E7C6C8",
":X c #FCC6CB",
">X c #F7C7C7",
",X c #E8D4CA",
"<X c #FEC2DE",
"1X c #FFCEDD",
"2X c #F9C8D6",
"3X c #EDD7D5",
"4X c #FFD4DB",
"5X c #FDD9D7",
"6X c #F7CCD1",
"7X c #DDE3D7",
"8X c #EBEBDD",
"9X c #ECE2DC",
"0X c #F4EDDD",
"qX c #F8E6DD",
"wX c #F7F0DA",
"eX c #FBF8CD",
"rX c #FECBE3",
"tX c #FDC7E9",
"yX c #FED4E4",
"uX c #FFDAE4",
"iX c #FFD4EB",
"pX c #FFDDEB",
"aX c #F6DAE5",
"sX c #FFC8F1",
"dX c #FFD2F3",
"fX c #FFDBF4",
"gX c #FFDCFB",
"hX c #FFD7F9",
"jX c #EDD0E4",
"kX c #E8ECE7",
"lX c #FCE5E4",
"zX c #F4EBE3",
"xX c #FCECE4",
"cX c #FEE4EB",
"vX c #FEEDEB",
"bX c #F5EAEA",
"nX c #ECF3EB",
"mX c #E9F3E4",
"MX c #F4F3E2",
"NX c #FDF3E3",
"BX c #F5F3EC",
"VX c #FDF3EC",
"CX c #F8FBEA",
"ZX c #FFE4F3",
"AX c #FFECF4",
"SX c #FFE4FC",
"DX c #FFEBFE",
"FX c #F4EBF3",
"GX c #FEF3F4",
"HX c #FEFDF2",
"JX c #FFF4FC",
"KX c #FAFBF8",
"LX c #EBEEF7",
"PX c #DBE6EA",
/* pixels */
"%.%.%.%.%.%.%.%.%.%.%.%.%.%.%.%.%.%.%.%.$.$.%.%.%.%.$.$.%.%.-.-.-.%.%.%.$.$.%.%.%.%.$.$.%.%.%.%.%.%.%.%.%.%.%.%.%.%.%.%.%.%.%.%.",
"%.%.%.%.%.%.%.%.%.%.%.%.%.%.%.%.%.%.%.%.$.$.%.%.%.%.$.%.%.%.-.-.-.%.%.%.$.$.%.%.%.%.$.$.%.%.%.%.%.%.%.%.%.%.%.%.%.%.%.%.%.%.%.%.",
"%.%.%.%.%.%.%.%.%.%.%.%.%.%.%.%.%.%.%.%.%.%.9.9.9.9.%.%.%.%.%.%.%.%.%.%.%.%.%.%.%.%.%.%.%.%.%.%.%.%.%.%.%.%.%.%.%.%.%.%.%.%.%.%.",
"%.%.%.%.%.%.%.%.%.%.%.%.%.%.%.%.%.%.%.%.%.%.9.9.9.9.%.%.%.%.%.%.%.%.%.%.%.%.%.%.%.%.%.%.%.%.%.%.%.%.%.%.%.%.%.%.%.%.%.%.%.%.%.%.",
"%.%.%.%.%.%.%.%.%.%.%.%.%.%.%.%.9.9.9.9.9.9.9.9.9.9.9.9.9.9.9.%.%.%.%.%.%.%.%.%.%.%.-.%.%.%.%.%.%.%.%.%.%.%.%.%.%.%.%.%.%.%.%.%.",
"%.%.%.%.%.%.%.%.%.%.%.%.%.%.%.%.9.9.9.9.9.9.9.9.9.9.w.w.9.9.9.9.9.%.%.%.-.-.%.%.%.%.-.-.%.%.%.%.%.%.%.%.%.%.%.%.%.%.%.%.%.%.%.%.",
"%.%.%.%.%.%.%.%.%.%.%.%.%.%.%.%.9.8.9.9.-.-.%.%.%.%.-.-.9.9.9.9.8.9.9.9.-.-.%.%.%.%.-.-.9.9.9.9.%.%.%.%.%.%.%.%.%.%.%.%.%.%.%.%.",
"%.%.%.%.%.%.%.%.%.%.%.%.%.%.%.%.9.8.9.9.-.-.%.$.$.%.-.( 9.9.9.9.9.9.8.9.-.-.%.$.$.%.-.-.9.9.9.9.%.%.%.%.%.%.%.%.%.%.%.%.%.%.%.%.",
"%.%.%.%.%.%.%.%.%.%.%.%.%.%.%.%.9.$.8.9.r.e.| t. .&.-.w.9.9.9.8.8.8.8.9.w.~ &.t. .&.r.^ ~ q.9.9.%.%.%.%.%.%.%.%.%.%.%.%.%.%.%.%.",
"%.%.%.%.%.%.%.%.%.%.%.%.%.%.%.%.%.9.9.9.^ %. ..X%X .$.-.9.8.9.9.~ 9.q.9.-.%. .%X.X .$.^ 9.9.~ 9.%.%.%.%.%.%.%.%.%.%.%.%.%.%.%.%.",
"%.%.%.%.%.%.%.%.%.%.%.%.%.%.%.%.%.9.8.q.~ $.o.tXgXo.@.%.$.8.9.9.~ 9.q.$.%.$.4.hXtXo.@.%.q.$.~ w.%.%.%.%.%.%.%.%.%.%.%.%.%.%.%.%.",
"%.%.%.%.%.%.%.%.%.%.%.%.%.%.%.%.9.%.$.$.%.&.4.fXDXH.| %.$.q.%.9.w.$.$.&.*.| H.DXfX4.&.#.%.$.9.w.%.%.%.%.%.%.%.%.%.%.%.%.%.%.%.%.",
"%.%.%.%.%.%.%.%.%.%.%.%.%.%.%.%.w.^ %.@.q.{ D.DXDX<X} @.&.q.~ w.r.~ 0.&.$.{ <XDXDXD. .$.8.%.w.w.%.%.%.%.%.%.%.%.%.%.%.%.%.%.%.%.",
"%.%.%.%.%.%.%.%.%.%.%.%.%.%.%.%.w.^ q.[ &.{ *XJXZXSXt.| &.*.~ r.w.~ q.&.[ G.SXZXJX&X{ @.q.%.( w.%.%.%.%.%.%.%.%.%.%.%.%.%.%.%.%.",
"%.%.%.%.%.%.%.%.%.%.%.%.%.%.%.%.-.-.$.$.=.O.pXGXOXZX%X=.&.$.%.w.^ 9.0. .| %XSXOXbXpXO.$.*.%.( w.%.%.%.%.%.%.%.%.%.%.%.%.%.%.%.%.",
"%.%.%.%.%.%.%.%.%.%.%.%.%.%.%.%.w.w.E u.} G.DXaXP yXhXo.} $.r./ ^ w.$.[ o.dXiXa.;XJXH.=.[ $.-.( %.%.%.%.%.%.%.%.%.%.%.%.%.%.%.%.",
"%.%.%.%.%.%.%.%.%.%.%.%.%.%.%.%.^ -.;._ { @XDX&XI  XDXD.o.[ w.w.w.e.W o.D.DX*XI P.JX%X] :.@.r.^ %.%.%.%.%.%.%.%.%.%.%.%.%.%.%.%.",
"%.%.%.%.%.%.%.%.%.%.%.%.%.%.%.9.w.~ #.=.{ <XDXoXR R DX*X] *./ ( ( ~ $.] *XDXA.3.j.DXsXo.=.@.%.w.%.%.%.%.%.%.%.%.%.%.%.%.%.%.%.%.",
"%.%.%.%.%.%.%.%.%.%.%.%.%.%.%.9.e.~ #.=.O.hXgXj.5.I tXSX4.t.w.r.r.9.0.4.SXrXT A.I dXSXC.[ %.%.9.%.%.%.%.%.%.%.%.%.%.%.%.%.%.%.%.",
"%.%.%.%.%.%.%.%.%.%.%.%.%.%.%.9.9.~ *.} H.DXsXR 6.1.S.DX+X] q./ ^ 9.) +XDXD.3.A.T =XDX+X{ q.9.~ %.%.%.%.%.%.%.%.%.%.%.%.%.%.%.%.",
"%.%.%.%.%.%.%.%.%.%.%.%.%.%.%.9.<.9.0.] *XDX%X1.7.6.I dXdXX.0.w.w.0.X.dXdXR A.5.7.A.DXtXX.&.w.^ %.%.%.%.%.%.%.%.%.%.%.%.%.%.%.%.",
"%.%.%.%.%.%.%.%.%.%.%.%.%.%.%.9.w.9.} X.SXDXXX7.7.6.R oXDXD.] q.8.] D.DX=XR 6.5.7.1.gXDXC.Q w.w.%.%.%.%.%.%.%.%.%.%.%.%.%.%.%.%.",
"%.%.%.%.%.%.%.%.%.%.%.%.%.%.%.9.w.9.[ H.DXfX5.7.6.5.3.U ZX&X) 0. .] ;XcXS.3.5.5.6.T jXDX@X..%.w.%.%.%.%.%.%.%.%.%.%.%.%.%.%.%.%.",
"%.%.%.%.%.%.%.%.%.%.%.%.%.%.%.%.9.$.{ @XDXjX3.6.3.T F.U ZXAX#X$X$X$XGXcXS.U 3.3.6.R OXDX<Xo.@.#.%.%.%.%.%.%.%.%.%.%.%.%.%.%.%.%.",
"%.%.%.%.%.%.%.%.%.%.%.%.%.%.%.%.^ | X.1XJX&X] 1.j.oX<XrX#X#XlXGXJXcXP.#XfXrXP.S.5.T Z.JXiXF.=.( %.%.%.%.%.%.%.%.%.%.%.%.%.%.%.%.",
"%.%.%.%.%.%.%.%.%.%.%.%.%.%.%.%.r.&.Z.AXcXd.3.+XsXSX#Xd.K.3XBXkXnXGX,Xb.d.$XZXiX%XD.d 5XJXD.[ -.%.%.%.%.%.%.%.%.%.%.%.%.%.%.%.%.",
"%.%.%.%.%.%.%.%.%.%.%.%.%.%.%.%.~ { I.GXqXP.2XSXsXH.Y L.VXzXzXBXBX8XCX0XK.Y C.rXgXpXz.,XGX$X) #.%.%.%.%.%.%.%.%.%.%.%.%.%.%.%.%.",
"%.%.%.%.%.%.%.%.%.%.%.%.%.%.%.%.e.{ 4XVXzXqXGXyXv.) b.lX0X8XHXzXvXzXCXMX5Xn.x ' 1XAX9X8XzXpXO.$.%.%.%.%.%.%.%.%.%.%.%.%.%.%.%.%.",
"%.%.%.%.%.%.%.%.%.%.%.%.9.%.%.%.q.4.AXHXMXMXxXZ.s ' U.VX9X0XxXvXvXqX8XwXxXY.' s b.zXCXmXMXGXG.$.%.%.%.%.%.%.%.%.%.%.%.%.%.%.%.%.",
"%.%.%.%.%.%.%.%.%.%.%.%.%.%.%.9.Q @XAXnXMX0XxXf u ' m.Y.xXVX3XvXvXqXNXqX].c.` i i NXMXmXCXvX@XQ %.%.%.%.%.%.%.%.%.%.%.%.%.%.%.%.",
"%.%.%.%.%.%.%.%.%.%.%.%.%.9.%.8...sXJXmXMXwXxXd % g B.x n.4XvXkXkXGX4Xm.b b ` % p NX0XmXmXVXdX2.8.%.%.%.%.%.%.%.%.%.%.%.%.%.%.%.",
"%.%.%.%.%.%.%.%.%.%.%.%.%.9.%.&.4.tXGXCXCX0XxXP.$ < s v g d.vXBXBX3Xb.v v i w + L.wXzXHXmXBXgX2.&.%.%.%.%.%.%.%.%.%.%.%.%.%.%.%.",
"%.%.%.%.%.%.%.%.%.%.%.%.q.e.%.$.] 1XGX7X'.8XMXHXs.@ o = < 1 d 3X;Xf.1 < < @ . e eXwXbXl.-XCXuXO.| q.9.%.%.9.q.%.%.%.%.%.%.%.%.%.",
"%.%.%.%.%.%.%.%.9.%.9.$.%.%.~ &.` 2XxXq o 5 V.!.`.V &   @ + ; g x., + @ o o 7 !.!.`.4 O * '.4X' =.$.$.%.9.%.9.9.%.%.%.%.%.%.%.%.",
"%.%.%.%.%.%.%.%.%.%.9.%.%.9.%.y.O.Y.f . # 3 H ~.^.}.!.8 > : y l b y : 2 > A |.^.L J p o O 0 U.v.y.9.$.q.9.%.%.9.%.%.%.%.%.%.%.%.",
"%.%.%.%.%.%.%.%.%.%.9.%.9.9.9.y.J.H.r X = !.K K !.A ^.).V.z b b c B.z a J _.W.h.K K {.r O < R.M.y.$.9.q.9.%.%.%.%.%.%.%.%.%.%.%.",
"%.%.%.%.%.%.%.%.9.%.9.%.%.%.~ u.>.M.9 X - `.L L E.i.Q._.J M l +.c n a F {.(.g.p._.L ^.e   9 ` _ u.W %.9.~ 9.9.9.%.%.%.%.%.%.%.%.",
"%.%.%.%.%.%.%.%.9.%.9.%.9.%.%.u.c v i $ o r {.(.k.g.Q.H J G n m m m a /.H (.k.g.Q.{.!.& . w ' _ y.W 9.9.~ q.9.%.%.%.%.%.%.%.%.%.",
"%.%.%.%.%.%.%.%.%.%.9.9.9.9.9.J.Y.D C 6 & o 8 h.l.z.|.{.).G j k m M S ).).}.-Xk.W.V & . 3 h c.J..X@.q.q.$.q.%.%.%.%.%.%.%.%.%.%.",
"%.%.%.%.%.%.%.%.9.%.q.9.%.$.%.J.cXqX].T.h.e 4 4 q t p N B S j m k j S B a r r 0 4 4 r Z [.].5XSX.XW $.q.%.e.%.9.%.%.%.%.%.%.%.%.",
"%.%.%.%.%.%.%.%.%.%.%.%.%.%.%. .pXAXcXcXHXHXzXqX;X;XL.L.V.h x.N.N.x.h V.P.'.'.,XlXAXAXGXNX0XlXDXt.q.$.$.9.9.%.9.%.%.%.%.%.%.%.%.",
"%.%.%.%.%.%.%.%.%.%.%.%.%.%.%. .H.yXDXZX4X>X;X>XU.:XU.;X5XU.1XZXuX:XU.4X2X#X[.[.U.#X<X1XqXVXuX$Xt.8.$.%.9.9.%.%.%.%.%.%.%.%.%.%.",
"%.%.%.%.%.%.%.%.%.%.%.%.%.%.%.&.O.' O.M.+.n z h l h C C f.K.2X2X4X:XK.b.d.x.z a h v c ' v.v.' :.&.$.$.9.9.9.%.%.%.%.%.%.%.%.%.%.",
"%.%.%.%.%.%.%.%.%.%.%.%.%.%.%.@._ M._ s c B.N.T.Y.c.C 6 ; 2 f b.f.d 2 ; 2 i D R.T.n.B.' s x +.:.=.$.%.9.9.%.%.%.%.%.%.%.%.%.%.%.",
"%.%.%.%.%.%.%.%.%.%.%.%.%.%.%.$.} O.I.:X5XvXVX9X= @ . < f.f # # = $ d d.< X # X P.GXAX:X6X$XG._ $.9.9.%.%.%.%.9.%.%.%.%.%.%.%.%.",
"%.%.%.%.%.%.%.%.%.%.%.%.%.%.%.%.t.! J.uXcXkXnXmXa.0 s.9XKXGXl.0 0 l.BXHXxXa.q a.kXBX3XpXDX+X) u.$.8.9.%.%.%.9.%.%.%.%.%.%.%.%.%.",
"%.%.%.%.%.%.%.%.%.%.%.%.%.%.%.%./ e.@.t.iXJXkXmXCXwXGXbXLXKXHXMXHXBXkXkXvXJXBXKXkXFXJXfXC.[ e./ %.8.9.$.%.9.9.%.%.%.%.%.%.%.%.%.",
"%.%.%.%.%.%.%.%.%.%.%.%.%.%.%.%.r./ ,.8.X.oXAXVXqXqXcXFXLXPX8X0X8XkXkXnXcXcX3XvXGXpX#X4...w.r.( %.%.%.%.%.9.9.%.%.%.%.%.%.%.%.%.",
"%.%.%.%.%.%.%.%.%.%.%.%.%.%.%.%.w.( ( 9.2.o.C.I.yXpXDXDXFXLXnXnXkXnXFXAXAXZXiXrX+XC.] ..8.9.-.w.%.%.%.%.%.%.%.%.%.%.%.%.%.%.%.%.",
"%.%.%.%.%.%.%.%.%.%.%.%.%.%.%.%.w.^ 9.w.9.|  .4.X.C.I.*XrXaXaXaXaXaX2X2X#XI.C.C.o. .| 8.q.9.~ 9.%.%.%.%.%.%.%.%.%.%.%.%.%.%.%.%.",
"%.%.%.%.%.%.%.%.%.%.%.%.%.%.%.%.9.%.%.9.q.%.$.@.*.=.} { { o.O.O.4.O.O.o.} { ..E [ @.9.q.%.$.%.9.%.%.%.%.%.%.%.%.%.%.%.%.%.%.%.%.",
"%.%.%.%.%.%.%.%.%.%.%.%.%.%.%.%.8.8.$.$.9.q.w.%.%.#.#.#.%.*.*.*.@.@.@.$.%.*.e.e.r.e.9.%.%.9.9.9.%.%.%.%.%.%.%.%.%.%.%.%.%.%.%.%.",
"%.%.%.%.%.%.%.%.%.%.%.%.%.%.%.%.0.0.0.$.$.%.%.^ ^ -.-.r.r.-./ / %.%.%.%.#.^ ^ ^ -.-.%.%.9.q.9.$.%.%.%.%.%.%.%.%.%.%.%.%.%.%.%.%.",
"%.%.%.%.%.%.%.%.%.%.%.%.%.%.%.%.$.0.8.8.%.%.%.%.r.w.w.-.^ ^ w.r.%.%.9.9.9.w.w.w.~ %.w.%.%.%.9.9.%.%.%.%.%.%.%.%.%.%.%.%.%.%.%.%.",
"%.%.%.%.%.%.%.%.%.%.%.%.%.%.%.%.$.$.9.q.9.9.9.9.$.$.$.$.$.&.&.&. . . .&.&.$.$.$.9.9.9.%.~ ~ %.e.%.%.%.%.%.%.%.%.%.%.%.%.%.%.%.%.",
"%.%.%.%.%.%.%.%.%.%.%.%.%.%.%.%.q.%.$.%.%.%.%.9.q.9.8.0.0.0.0.0.0.0.2.2.0.8.$.$.%.%.%.q.q.%.%.%.%.%.%.%.%.%.%.%.%.%.%.%.%.%.%.%.",
"%.%.%.%.%.%.%.%.%.%.%.%.%.%.%.%.%.%.%.%.%.%.%.%.9.9.9.9.9.9.9.9.9.9.9.9.9.9.9.9.%.%.%.%.%.%.%.%.%.%.%.%.%.%.%.%.%.%.%.%.%.%.%.%.",
"%.%.%.%.%.%.%.%.%.%.%.%.%.%.%.%.%.%.%.%.%.%.%.%.9.9.9.9.9.9.9.9.w.w.w.w.w.w.w.w.%.%.%.%.%.%.%.%.%.%.%.%.%.%.%.%.%.%.%.%.%.%.%.%.",
"%.%.%.%.%.%.%.%.%.%.%.%.%.%.%.%.%.%.%.%.%.%.-.-.-.-.w.w.w.9.w.w.,.,.,.,.w.w.-.-.%.%.%.%.%.%.%.%.%.%.%.%.%.%.%.%.%.%.%.%.%.%.%.%.",
"%.%.%.%.%.%.%.%.%.%.%.%.%.%.%.%.%.%.%.%.%.%.%.%.%.%.%.%.9.%.9.%.w.-.w.-.w.-.%.%.%.%.%.%.%.%.%.%.%.%.%.%.%.%.%.%.%.%.%.%.%.%.%.%.",
"%.%.%.%.%.%.%.%.%.%.%.%.%.%.%.%.%.%.%.%.%.%.%.%.%.%.$.$.$.$.$.$.%.%.%.%.%.%.%.%.%.%.%.%.%.%.%.%.%.%.%.%.%.%.%.%.%.%.%.%.%.%.%.%.",
"%.%.%.%.%.%.%.%.%.%.%.%.%.%.%.%.%.%.%.%.%.%.%.%.%.$.$.$.$.$.$.%.$.$.$.$.$.$.$.$.%.%.%.%.%.%.%.%.%.%.%.%.%.%.%.%.%.%.%.%.%.%.%.%.",
"%.%.%.%.%.%.%.%.%.%.%.%.%.%.%.%.%.%.%.%.%.%.%.%.%.%.%.%.%.%.-.%.%.%.%.%.$.$.%.%.%.%.%.%.%.%.%.%.%.%.%.%.%.%.%.%.%.%.%.%.%.%.%.%.",
"%.%.%.%.%.%.%.%.%.%.%.%.%.%.%.%.%.%.%.%.%.%.%.%.%.%.-.-.-.-.-.-.-.%.%.%.%.%.%.%.%.%.%.%.%.%.%.%.%.%.%.%.%.%.%.%.%.%.%.%.%.%.%.%."
};
